<svg xmlns="http://www.w3.org/2000/svg" xmlns:xlink="http://www.w3.org/1999/xlink" xmlns:inkscape="http://www.inkscape.org/namespaces/inkscape" version="1.1" width="800.136" height="31.602" viewBox="0 0 800.136 31.602">
<defs>
<path id="font_1_47" d="M.45507813 0H.091796878V.7001953H.17382813V.07421875H.45507813V0Z"/>
<path id="font_1_72" d="M.48291017 .22998047H.12988281C.13118489 .1743164 .14615886 .13134766 .17480469 .10107422 .20345052 .07080078 .24283855 .055664064 .29296876 .055664064 .34928385 .055664064 .40104167 .07421875 .4482422 .111328128V.036132814C.40429688 .004231771 .3461914-.01171875 .27392579-.01171875 .20328777-.01171875 .14778646 .010986328 .107421878 .056396486 .06705729 .10180664 .046875 .16569011 .046875 .24804688 .046875 .32584635 .06892904 .38924156 .11303711 .43823243 .15714519 .4872233 .21191406 .51171877 .27734376 .51171877 .34277345 .51171877 .39339195 .4905599 .42919923 .4482422 .4650065 .40592448 .48291017 .34716798 .48291017 .27197267V.22998047M.4008789 .29785157C.40055339 .34407554 .3894043 .38004557 .36743165 .40576173 .34545899 .43147788 .3149414 .44433595 .2758789 .44433595 .23811849 .44433595 .20605469 .4308268 .1796875 .4038086 .15332031 .37679038 .13704427 .34147135 .13085938 .29785157H.4008789Z"/>
<path id="font_1_87" d="M.31298829 .0048828127C.29410807-.005533854 .26920573-.0107421879 .23828125-.0107421879 .15071614-.0107421879 .106933597 .038085939 .106933597 .13574219V.43164063H.020996094V.5H.106933597V.6220703L.18701172 .6479492V.5H.31298829V.43164063H.18701172V.14990235C.18701172 .116373699 .19270833 .092447917 .20410156 .078125 .2154948 .063802089 .234375 .056640626 .2607422 .056640626 .28092448 .056640626 .29833985 .06217448 .31298829 .07324219V.0048828127Z"/>
<path id="font_2_1868" d="M.13378906 .30810548C.140625 .33805339 .14404297 .36263023 .14404297 .38183595 .14404297 .39485679 .14192708 .40429688 .13769531 .41015626 .13346355 .41601563 .12679036 .4189453 .11767578 .4189453 .10758463 .4189453 .09692383 .41479493 .08569336 .40649415 .07446289 .39819337 .05908203 .38313804 .03955078 .36132813L.01171875 .38867188C.041015626 .41927085 .065836589 .44132487 .08618164 .45483399 .106526698 .4683431 .12906902 .47509767 .1538086 .47509767 .17399089 .47509767 .19002278 .46842448 .2019043 .45507813 .21378581 .44173179 .21972656 .42399089 .21972656 .40185548 .21972656 .3836263 .21598308 .36442057 .2084961 .34423829L.21435547 .34228517C.2745768 .4305013 .33447267 .47460938 .39404298 .47460938 .42952476 .47460938 .45711265 .46110026 .47680665 .43408204 .49650065 .4070638 .50634768 .36897788 .50634768 .31982423 .50634768 .26611329 .49552409 .21329753 .47387696 .16137696 .45222984 .10945638 .42220054 .06827799 .38378907 .037841798 .3453776 .007405599 .30240885-.0078125 .2548828-.0078125 .21158855-.0078125 .17561849 .0016276041 .14697266 .020507813L.12451172-.08642578C.119628909-.10953776 .1171875-.12858074 .1171875-.14355469 .1171875-.15787761 .12084961-.16805013 .12817383-.17407227 .13549805-.1800944 .14973958-.18408203 .17089844-.18603516L.16699219-.20996094H.016113282L.13378906 .30810548M.18310547 .16992188C.17985027 .15266927 .17781575 .13948567 .17700196 .1303711 .17618816 .12125651 .17578125 .11230469 .17578125 .103515628 .17578125 .078125 .18123372 .05965169 .19213867 .048095704 .20304363 .036539716 .22184246 .030761719 .24853516 .030761719 .26513673 .030761719 .2804362 .034016927 .2944336 .040527345 .308431 .04703776 .32169596 .056477865 .33422853 .068847659 .34676109 .081217449 .3580729 .096191409 .36816407 .11376953 .37825523 .13134766 .38728843 .1517741 .39526368 .17504883 .40323893 .19832357 .40926109 .22224935 .41333009 .24682617 .41739909 .27140299 .4194336 .2944336 .4194336 .31591798 .4194336 .35009767 .41463218 .37556968 .4050293 .39233399 .39542643 .4090983 .38020835 .41748048 .359375 .41748048 .34277345 .41748048 .32641603 .41186524 .31030274 .40063478 .29418946 .3894043 .27652995 .37141929 .25732423 .3466797 .23811849 .3219401 .22314453 .29752604 .21240235 .2734375 .20166016 .24934896 .19319661 .22167969 .18701172 .19042969L.18310547 .16992188Z"/>
<path id="font_2_4666" d="M.17236328 .24707031C.17236328 .13313802 .19067383 .03922526 .22729492-.03466797 .26391603-.108561199 .31982423-.15804036 .39501954-.18310547L.38330079-.22070313C.2879232-.19563802 .21484375-.14168294 .1640625-.05883789 .11328125 .024007163 .087890628 .12434896 .087890628 .2421875 .087890628 .35970054 .11336263 .46004234 .16430664 .5432129 .21525066 .6263835 .2882487 .6805013 .38330079 .7055664L.39648438 .66796877C.3203125 .6429036 .26391603 .59399417 .22729492 .52124026 .19067383 .44848634 .17236328 .35709635 .17236328 .24707031Z"/>
<path id="font_2_1866" d="M.13330078 .3095703C.14046224 .3408203 .14404297 .36490885 .14404297 .38183595 .14404297 .39485679 .14192708 .40429688 .13769531 .41015626 .13346355 .41601563 .12679036 .4189453 .11767578 .4189453 .10758463 .4189453 .09692383 .41479493 .08569336 .40649415 .07446289 .39819337 .05908203 .38313804 .03955078 .36132813L.01171875 .38867188C.041666669 .41992188 .06656901 .44213868 .08642578 .45532228 .106282558 .46850587 .12874349 .47509767 .1538086 .47509767 .1743164 .47509767 .19051107 .4683431 .20239258 .45483399 .2142741 .44132487 .22021485 .42366538 .22021485 .40185548 .22021485 .38460288 .2163086 .36539714 .2084961 .34423829L.21435547 .34228517C.24625652 .38720704 .27661134 .42049156 .30541993 .44213868 .33422853 .4637858 .36393229 .47460938 .39453126 .47460938 .4248047 .47460938 .44807945 .4659017 .46435548 .44848634 .4806315 .43107096 .48876954 .40690104 .48876954 .37597657 .48876954 .35546876 .48404948 .32633464 .47460938 .28857423L.4428711 .16064453C.43408204 .12516277 .4296875 .100097659 .4296875 .08544922 .4296875 .07242838 .43180339 .06298828 .43603517 .057128908 .44026695 .05126953 .4469401 .048339845 .4560547 .048339845 .4658203 .048339845 .47623698 .052327474 .4873047 .060302736 .4983724 .06827799 .5139974 .083496097 .5341797 .10595703L.5620117 .07861328C.5340169 .048665365 .50960287 .026774088 .48876954 .012939453 .4679362-.0008951823 .4441732-.0078125 .41748048-.0078125 .39632163-.0078125 .37939454-.00024414063 .36669923 .014892578 .3540039 .030029297 .34765626 .049316408 .34765626 .072753909 .34765626 .09391276 .35302735 .125 .36376954 .16601563L.3852539 .25048829C.3930664 .28108726 .39819337 .30371095 .40063478 .31835938 .40307618 .3330078 .40429688 .3448893 .40429688 .3540039 .40429688 .37646485 .40055339 .39265953 .3930664 .4025879 .38557945 .41251628 .3733724 .41748048 .3564453 .41748048 .34277345 .41748048 .3280436 .41202799 .31225587 .40112306 .2964681 .3902181 .27970378 .3737793 .2619629 .35180665 .244222 .32983399 .22998047 .30851237 .21923828 .2878418 .2084961 .26717124 .19970703 .24169922 .1928711 .21142578L.14648438 0H.06201172L.13330078 .3095703Z"/>
<path id="font_2_4667" d="M.24267578 .24707031C.24267578 .35709635 .22444661 .44848634 .18798828 .52124026 .15152996 .59399417 .095052089 .6429036 .018554688 .66796877L.03173828 .7055664C.12679036 .6805013 .1997884 .6263835 .25073243 .5432129 .30167643 .46004234 .32714845 .35970054 .32714845 .2421875 .32714845 .12434896 .3017578 .024007163 .25097657-.05883789 .20019531-.14168294 .12711589-.19563802 .03173828-.22070313L.020019532-.18310547C.095214847-.15804036 .15112305-.108561199 .18774414-.03466797 .22436524 .03922526 .24267578 .13313802 .24267578 .24707031Z"/>
<path id="font_2_3404" d="M.072753909 .3544922V.4194336H.6743164V.3544922H.072753909M.072753909 .15185547V.21679688H.6743164V.15185547H.072753909M.6948242 .28564454V.28564454Z"/>
<path id="font_2_963" d="M.17138672 .6479492 .4091797 .28710938V.25L.14257813-.11621094H.4638672C.48404948-.11621094 .49926759-.11490885 .5095215-.11230469 .5197754-.10970052 .52856448-.10571289 .5358887-.1003418 .5432129-.0949707 .54988607-.08748373 .5559082-.07788086 .56193038-.06827799 .5677083-.05501302 .5732422-.038085939 .57877609-.021158854 .5839844 .0009765625 .5888672 .028320313H.6459961L.63183596-.20996094H.0126953129V-.18261719L.31445313 .2319336 .03125 .67089846V.69873049H.63427737V.4814453H.58154299C.57340499 .5123698 .5656738 .53759768 .5583496 .5571289 .5510254 .57666018 .5435384 .5921224 .5358887 .6035156 .52823898 .6149089 .52042648 .6236165 .5124512 .6296387 .5044759 .6356608 .49527995 .6402181 .48486329 .64331057 .47444663 .646403 .46061198 .6479492 .44335938 .6479492H.17138672Z"/>
<path id="font_2_1856" d="M.34179688 .12451172C.31054688 .078938808 .28092448 .045572919 .2529297 .024414063 .22493489 .0032552083 .1953125-.0073242189 .1640625-.0073242189 .1282552-.0073242189 .100504558 .006184896 .08081055 .033203126 .061116537 .060221357 .05126953 .09814453 .05126953 .14697266 .05126953 .20296224 .06225586 .25675456 .084228519 .3083496 .10620117 .35994468 .13639324 .40063478 .17480469 .43041993 .21321614 .46020509 .25602214 .47509767 .30322267 .47509767 .32307945 .47509767 .34138999 .47306315 .3581543 .46899415 .3749186 .46492515 .39208985 .45784507 .40966798 .4477539L.4350586 .5605469C.43766276 .57128909 .4399414 .5831706 .44189454 .5961914 .44384767 .6092122 .44482423 .62060549 .44482423 .6303711 .44482423 .6401367 .44303385 .6475423 .43945313 .6525879 .4358724 .6576335 .43074546 .6612956 .42407228 .6635742 .41739909 .66585287 .4054362 .66748049 .3881836 .66845706L.39404298 .69384768 .51660159 .6982422H.54541018L.42382813 .15771485C.41666667 .1258138 .41308595 .10172526 .41308595 .08544922 .41308595 .07242838 .4152018 .06298828 .4194336 .057128908 .42366538 .05126953 .43033854 .048339845 .43945313 .048339845 .44921876 .048339845 .4596354 .052327474 .47070313 .060302736 .48177085 .06827799 .49739585 .083496097 .5175781 .10595703L.54541018 .07861328C.5154622 .04703776 .49023438 .024739584 .46972657 .01171875 .44921876-.0013020834 .42708335-.0078125 .4033203-.0078125 .38313804-.0078125 .36702476-.0011393229 .35498048 .012207031 .3429362 .025553385 .33691407 .04329427 .33691407 .06542969 .33691407 .083333339 .34065757 .102376308 .34814454 .122558597L.34179688 .12451172M.37451173 .29736329C.37939454 .32080079 .38183595 .3429362 .38183595 .36376954 .38183595 .38916017 .37646485 .40763346 .36572267 .41918946 .35498048 .43074546 .3370768 .43652345 .31201173 .43652345 .2788086 .43652345 .24902344 .4230957 .22265625 .39624024 .19628906 .36938478 .17553711 .33317057 .16040039 .28759767 .14526367 .24202474 .13769531 .19661458 .13769531 .15136719 .13769531 .11751302 .14233399 .09220377 .15161133 .07543945 .16088867 .05867513 .1764323 .05029297 .19824219 .05029297 .20833333 .05029297 .21858724 .052490236 .2290039 .056884767 .23942058 .061279298 .25024415 .068359378 .2614746 .078125 .27270509 .087890628 .2837728 .09977213 .29467774 .11376953 .30558268 .12776692 .31559245 .1418457 .32470704 .15600586 .33382163 .17016602 .34228517 .18693035 .35009767 .20629883 .35791017 .22566732 .36458335 .24902344 .3701172 .2763672L.37451173 .29736329Z"/>
<path id="font_2_1861" d="M.2758789 .6582031 .25341798 .56347659H.16699219L.18945313 .6582031H.2758789M.118652347 .32910157C.12613933 .36165367 .12988281 .38606773 .12988281 .40234376 .12988281 .4169922 .12638347 .42692057 .119384769 .4321289 .11238607 .43733726 .09863281 .44026695 .078125 .44091798L.083496097 .46679688 .20263672 .4711914H.23144531L.16113281 .15771485C.15397136 .1258138 .15039063 .10172526 .15039063 .08544922 .15039063 .07242838 .15250652 .06298828 .15673828 .057128908 .16097005 .05126953 .16764324 .048339845 .17675781 .048339845 .18652344 .048339845 .19694011 .052327474 .20800781 .060302736 .21907552 .06827799 .23470052 .083496097 .2548828 .10595703L.28271485 .07861328C.2508138 .045084638 .22493489 .022298178 .20507813 .010253906 .18522136-.0017903646 .16292317-.0078125 .1381836-.0078125 .11702474-.0078125 .100097659-.00008138021 .087402347 .015380859 .07470703 .0308431 .068359378 .05061849 .068359378 .07470703 .068359378 .09944662 .072916667 .13102214 .08203125 .1694336L.118652347 .32910157Z"/>
<path id="font_2_882" d="M.27148438-.0078125C.20117188-.0078125 .1488444 .019856772 .11450195 .07519531 .08015951 .13053386 .06298828 .21451824 .06298828 .32714845 .06298828 .38704429 .06827799 .4388021 .07885742 .48242188 .08943685 .5260417 .10424805 .5620931 .123291019 .5905762 .14233399 .61905929 .16520183 .6401367 .19189453 .6538086 .21858724 .66748049 .24772136 .6743164 .27929688 .6743164 .35058595 .6743164 .40364585 .6468099 .43847657 .5917969 .47330729 .5367839 .49072267 .45361329 .49072267 .34228517 .49072267 .22705078 .47208659 .13989258 .43481446 .08081055 .39754234 .021728516 .34309898-.0078125 .27148438-.0078125M.15820313 .34179688C.15820313 .23567708 .16805013 .15779622 .18774414 .1081543 .20743816 .05851237 .23795574 .033691408 .27929688 .033691408 .3186849 .033691408 .3479004 .057047529 .36694337 .103759769 .38598634 .150472 .3955078 .22281902 .3955078 .32080079 .3955078 .39567057 .390625 .45629884 .38085938 .50268557 .37109376 .54907229 .35750328 .58235678 .3400879 .60253909 .32267253 .6227214 .30159507 .6328125 .27685548 .6328125 .25439454 .6328125 .2355957 .62613937 .22045899 .61279299 .20532227 .5994466 .19311524 .5802409 .18383789 .5551758 .17456055 .53011068 .16796875 .4995931 .1640625 .46362306 .16015625 .42765299 .15820313 .38704429 .15820313 .34179688Z"/>
<path id="font_2_1853" d="M.4194336 .4428711 .46435548 .47509767 .49560548 .46728517 .42382813 .15771485C.41666667 .12679036 .41308595 .10270182 .41308595 .08544922 .41308595 .07242838 .4152018 .06298828 .4194336 .057128908 .42366538 .05126953 .43033854 .048339845 .43945313 .048339845 .44921876 .048339845 .4596354 .052327474 .47070313 .060302736 .48177085 .06827799 .49739585 .083496097 .5175781 .10595703L.54541018 .07861328C.5161133 .04736328 .49112956 .025146485 .47045899 .011962891 .44978843-.0012207031 .42740885-.0078125 .4033203-.0078125 .38313804-.0078125 .36702476-.0011393229 .35498048 .012207031 .3429362 .025553385 .33691407 .04329427 .33691407 .06542969 .33691407 .083333339 .34065757 .102376308 .34814454 .122558597L.34179688 .12451172C.31054688 .078938808 .28092448 .045572919 .2529297 .024414063 .22493489 .0032552083 .1953125-.0073242189 .1640625-.0073242189 .1282552-.0073242189 .100504558 .006184896 .08081055 .033203126 .061116537 .060221357 .05126953 .09814453 .05126953 .14697266 .05126953 .20296224 .06225586 .25675456 .084228519 .3083496 .10620117 .35994468 .13639324 .40063478 .17480469 .43041993 .21321614 .46020509 .25602214 .47509767 .30322267 .47509767 .3243815 .47509767 .3441569 .47273765 .36254884 .46801759 .38094078 .46329753 .39990235 .45491538 .4194336 .4428711M.37646485 .29736329C.37939454 .31070964 .38134767 .32226563 .38232423 .33203126 .38330079 .34179688 .38378907 .3523763 .38378907 .36376954 .38378907 .38883464 .37841798 .40722657 .36767579 .4189453 .3569336 .43066407 .33870445 .43652345 .31298829 .43652345 .27945964 .43652345 .24934896 .4230143 .22265625 .3959961 .19596355 .36897788 .1751302 .33276368 .16015625 .28735353 .1451823 .24194336 .13769531 .19661458 .13769531 .15136719 .13769531 .11751302 .14233399 .09220377 .15161133 .07543945 .16088867 .05867513 .1764323 .05029297 .19824219 .05029297 .21972656 .05029297 .24080403 .059570314 .2614746 .078125 .28214518 .09667969 .3034668 .12312826 .32543946 .1574707 .3474121 .19181316 .36295573 .23144531 .3720703 .2763672L.37646485 .29736329Z"/>
<path id="font_1_90" d="M.7109375 .5 .56103518 0H.47802735L.375 .35791017C.37109376 .37158204 .3684896 .38704429 .3671875 .40429688H.36523438C.3642578 .39257813 .36083985 .3774414 .35498048 .35888673L.24316406 0H.16308594L.01171875 .5H.095703128L.19921875 .12402344C.20247396 .11263021 .20475261 .09765625 .20605469 .07910156H.20996094C.2109375 .09342448 .21386719 .10872396 .21875 .125L.33398438 .5H.40722657L.5107422 .123046878C.5139974 .1110026 .5164388 .09602865 .5180664 .078125H.52197268C.5226237 .09082031 .5253906 .10579427 .53027346 .123046878L.63183596 .5H.7109375Z"/>
<path id="font_1_76" d="M.12207031 .6269531C.1077474 .6269531 .09554037 .63183596 .08544922 .64160159 .07535807 .6513672 .0703125 .663737 .0703125 .67871096 .0703125 .6936849 .07535807 .70613607 .08544922 .71606448 .09554037 .72599288 .1077474 .73095706 .12207031 .73095706 .13671875 .73095706 .14916992 .72599288 .15942383 .71606448 .16967774 .70613607 .17480469 .6936849 .17480469 .67871096 .17480469 .664388 .16967774 .65218099 .15942383 .64208987 .14916992 .6319987 .13671875 .6269531 .12207031 .6269531M.16113281 0H.08105469V.5H.16113281V0Z"/>
<path id="font_1_75" d="M.49609376 0H.41601563V.28808595C.41601563 .3922526 .37727867 .44433595 .2998047 .44433595 .2607422 .44433595 .22786458 .4292806 .20117188 .39916993 .17447917 .36905924 .16113281 .33040367 .16113281 .28320313V0H.08105469V.7402344H.16113281V.4169922H.16308594C.20149739 .48014323 .2561849 .51171877 .32714845 .51171877 .43977867 .51171877 .49609376 .44384767 .49609376 .30810548V0Z"/>
<path id="font_2_3408" d="M.072753909-.017578125V.055664064L.60302737 .28564454 .072753909 .515625V.5888672L.67626956 .31982423V.25146485L.072753909-.017578125Z"/>
<path id="font_1_17" d="M.10888672-.0107421879C.09391276-.0107421879 .08113607-.0053710939 .07055664 .0053710939 .059977216 .016113282 .0546875 .028971354 .0546875 .043945314 .0546875 .05891927 .059977216 .07185873 .07055664 .08276367 .08113607 .09366862 .09391276 .099121097 .10888672 .099121097 .124186199 .099121097 .13720703 .09366862 .14794922 .08276367 .1586914 .07185873 .1640625 .05891927 .1640625 .043945314 .1640625 .028971354 .1586914 .016113282 .14794922 .0053710939 .13720703-.0053710939 .124186199-.0107421879 .10888672-.0107421879Z"/>
<path id="font_1_55" d="M.5058594 .62597659H.30371095V0H.22167969V.62597659H.020019532V.7001953H.5058594V.62597659Z"/>
<path id="font_1_81" d="M.49609376 0H.41601563V.28515626C.41601563 .39127604 .37727867 .44433595 .2998047 .44433595 .25976563 .44433595 .22664388 .4292806 .20043946 .39916993 .17423503 .36905924 .16113281 .3310547 .16113281 .28515626V0H.08105469V.5H.16113281V.4169922H.16308594C.20084636 .48014323 .25553385 .51171877 .32714845 .51171877 .38183595 .51171877 .42366538 .49405924 .45263673 .45874024 .48160807 .42342124 .49609376 .37239585 .49609376 .30566407V0Z"/>
<path id="font_2_547" d="M.31933595-.0078125C.23404949-.0078125 .16918946 .020833334 .12475586 .078125 .080322269 .13541667 .05810547 .21858724 .05810547 .32763673 .05810547 .43766276 .08276367 .5229492 .13208008 .5834961 .18139649 .64404299 .24723308 .6743164 .32958985 .6743164 .41617839 .6743164 .48209635 .64575198 .52734377 .58862307 .5725911 .53149417 .59521487 .44921876 .59521487 .34179688 .59521487 .2298177 .57088217 .14355469 .5222168 .08300781 .47355143 .022460938 .40592448-.0078125 .31933595-.0078125M.15673828 .3413086C.15673828 .2413737 .1714681 .16536458 .20092774 .11328125 .23038738 .061197919 .2734375 .03515625 .33007813 .03515625 .38476563 .03515625 .42618815 .060628255 .4543457 .111572269 .48250328 .16251628 .49658204 .23242188 .49658204 .32128907 .49658204 .421875 .4818522 .4986979 .45239259 .5517578 .42293296 .6048177 .38085938 .63134768 .32617188 .63134768 .21321614 .63134768 .15673828 .53466799 .15673828 .3413086M.43066407 .41259767V.26123048H.39453126C.38736979 .29052735 .37141929 .30517579 .3466797 .30517579H.30664063C.29264323 .30517579 .2824707 .3021647 .27612306 .29614259 .2697754 .29012046 .26416017 .27848307 .25927735 .26123048H.22265625V.41259767H.25927735C.26578776 .38264976 .28352867 .36767579 .3125 .36767579H.34179688C.35872398 .36767579 .37076823 .37101237 .3779297 .37768556 .38509117 .38435874 .390625 .3959961 .39453126 .41259767H.43066407Z"/>
</defs>
<use data-text="L" xlink:href="#font_1_47" transform="matrix(22.91407,0,0,-22.91407,6.277,23.008999)" fill="#1c252b"/>
<use data-text="e" xlink:href="#font_1_72" transform="matrix(22.91407,0,0,-22.91407,17.069527,23.008999)" fill="#1c252b"/>
<use data-text="t" xlink:href="#font_1_87" transform="matrix(22.91407,0,0,-22.91407,29.053586,23.008999)" fill="#1c252b"/>
<use data-text="&#x1d45d;" xlink:href="#font_2_1868" transform="matrix(22.91407,0,0,-22.91407,43.087,23.008999)" fill="#1c252b"/>
<use data-text="(" xlink:href="#font_2_4666" transform="matrix(22.91407,0,0,-22.91407,56.14802,23.008999)" fill="#1c252b"/>
<use data-text="&#x1d45b;" xlink:href="#font_2_1866" transform="matrix(22.91407,0,0,-22.91407,65.657367,23.008999)" fill="#1c252b"/>
<use data-text=")" xlink:href="#font_2_4667" transform="matrix(22.91407,0,0,-22.91407,79.199588,23.008999)" fill="#1c252b"/>
<use data-text="=" xlink:href="#font_2_3404" transform="matrix(22.91407,0,0,-22.91407,95.07903,23.008999)" fill="#1c252b"/>
<use data-text="&#x2211;" xlink:href="#font_2_963" transform="matrix(22.91407,0,0,-22.91407,118.551,22.064)" fill="#1c252b"/>
<use data-text="&#x1d451;" xlink:href="#font_2_1856" transform="matrix(16.03978,0,0,-16.03978,134.785,11.199999)" fill="#1c252b"/>
<use data-text="&#x1d456;" xlink:href="#font_2_1861" transform="matrix(16.03978,0,0,-16.03978,134.785,30.455)" fill="#1c252b"/>
<use data-text="=" xlink:href="#font_2_3404" transform="matrix(16.03978,0,0,-16.03978,140.36685,30.455)" fill="#1c252b"/>
<use data-text="0" xlink:href="#font_2_882" transform="matrix(16.03978,0,0,-16.03978,152.34857,30.455)" fill="#1c252b"/>
<use data-text="&#x1d44e;" xlink:href="#font_2_1853" transform="matrix(22.91407,0,0,-22.91407,166.012,23.008999)" fill="#1c252b"/>
<use data-text="&#x1d456;" xlink:href="#font_2_1861" transform="matrix(16.03978,0,0,-16.03978,178.778,27.685999)" fill="#1c252b"/>
<use data-text="&#x1d45b;" xlink:href="#font_2_1866" transform="matrix(22.91407,0,0,-22.91407,184.812,23.008999)" fill="#1c252b"/>
<use data-text="&#x1d456;" xlink:href="#font_2_1861" transform="matrix(16.03978,0,0,-16.03978,198.35,14.618)" fill="#1c252b"/>
<use data-text="w" xlink:href="#font_1_90" transform="matrix(22.91407,0,0,-22.91407,210.661,23.008999)" fill="#1c252b"/>
<use data-text="i" xlink:href="#font_1_76" transform="matrix(22.91407,0,0,-22.91407,227.22788,23.008999)" fill="#1c252b"/>
<use data-text="t" xlink:href="#font_1_87" transform="matrix(22.91407,0,0,-22.91407,232.77309,23.008999)" fill="#1c252b"/>
<use data-text="h" xlink:href="#font_1_75" transform="matrix(22.91407,0,0,-22.91407,240.54096,23.008999)" fill="#1c252b"/>
<use data-text="&#x1d44e;" xlink:href="#font_2_1853" transform="matrix(22.91407,0,0,-22.91407,259.778,23.008999)" fill="#1c252b"/>
<use data-text="&#x1d451;" xlink:href="#font_2_1856" transform="matrix(16.03978,0,0,-16.03978,272.544,27.685999)" fill="#1c252b"/>
<use data-text="&#x003e;" xlink:href="#font_2_3408" transform="matrix(22.91407,0,0,-22.91407,289.157,23.008999)" fill="#1c252b"/>
<use data-text="0" xlink:href="#font_2_882" transform="matrix(22.91407,0,0,-22.91407,312.66685,23.008999)" fill="#1c252b"/>
<use data-text="." xlink:href="#font_1_17" transform="matrix(22.91407,0,0,-22.91407,325.373,23.008999)" fill="#1c252b"/>
<use data-text="T" xlink:href="#font_1_55" transform="matrix(22.91407,0,0,-22.91407,338.70899,23.008999)" fill="#1c252b"/>
<use data-text="h" xlink:href="#font_1_75" transform="matrix(22.91407,0,0,-22.91407,350.71598,23.008999)" fill="#1c252b"/>
<use data-text="e" xlink:href="#font_1_72" transform="matrix(22.91407,0,0,-22.91407,363.68534,23.008999)" fill="#1c252b"/>
<use data-text="n" xlink:href="#font_1_81" transform="matrix(22.91407,0,0,-22.91407,375.6694,23.008999)" fill="#1c252b"/>
<use data-text="&#x1d45d;" xlink:href="#font_2_1868" transform="matrix(22.91407,0,0,-22.91407,394.909,23.008999)" fill="#1c252b"/>
<use data-text="(" xlink:href="#font_2_4666" transform="matrix(22.91407,0,0,-22.91407,407.97,23.008999)" fill="#1c252b"/>
<use data-text="&#x1d45b;" xlink:href="#font_2_1866" transform="matrix(22.91407,0,0,-22.91407,417.47935,23.008999)" fill="#1c252b"/>
<use data-text=")" xlink:href="#font_2_4667" transform="matrix(22.91407,0,0,-22.91407,431.02156,23.008999)" fill="#1c252b"/>
<use data-text="=" xlink:href="#font_2_3404" transform="matrix(22.91407,0,0,-22.91407,446.901,23.008999)" fill="#1c252b"/>
<use data-text="&#x0398;" xlink:href="#font_2_547" transform="matrix(22.91407,0,0,-22.91407,470.38795,23.008999)" fill="#1c252b"/>
<use data-text="(" xlink:href="#font_2_4666" transform="matrix(22.91407,0,0,-22.91407,485.35084,23.008999)" fill="#1c252b"/>
<use data-text="&#x1d45b;" xlink:href="#font_2_1866" transform="matrix(22.91407,0,0,-22.91407,494.86018,23.008999)" fill="#1c252b"/>
<use data-text="&#x1d451;" xlink:href="#font_2_1856" transform="matrix(16.03978,0,0,-16.03978,508.392,14.618)" fill="#1c252b"/>
<use data-text=")" xlink:href="#font_2_4667" transform="matrix(22.91407,0,0,-22.91407,518.639,23.008999)" fill="#1c252b"/>
<use data-text="." xlink:href="#font_1_17" transform="matrix(22.91407,0,0,-22.91407,528.149,23.008999)" fill="#1c252b"/>
</svg>
