<svg xmlns="http://www.w3.org/2000/svg" xmlns:xlink="http://www.w3.org/1999/xlink" xmlns:inkscape="http://www.inkscape.org/namespaces/inkscape" version="1.1" width="827.496" height="82.192" viewBox="0 0 827.496 82.192">
<defs>
<path id="font_1_36" d="M.63378909 0H.54296877L.46875 .19628906H.171875L.10205078 0H.0107421879L.27929688 .7001953H.3642578L.63378909 0M.44189454 .27001954 .33203126 .5683594C.32845054 .578125 .32486979 .59375 .32128907 .6152344H.31933595C.31608073 .5953776 .31233726 .5797526 .30810548 .5683594L.19921875 .27001954H.44189454Z"/>
<path id="font_1_75" d="M.49609376 0H.41601563V.28808595C.41601563 .3922526 .37727867 .44433595 .2998047 .44433595 .2607422 .44433595 .22786458 .4292806 .20117188 .39916993 .17447917 .36905924 .16113281 .33040367 .16113281 .28320313V0H.08105469V.7402344H.16113281V.4169922H.16308594C.20149739 .48014323 .2561849 .51171877 .32714845 .51171877 .43977867 .51171877 .49609376 .44384767 .49609376 .30810548V0Z"/>
<path id="font_1_76" d="M.12207031 .6269531C.1077474 .6269531 .09554037 .63183596 .08544922 .64160159 .07535807 .6513672 .0703125 .663737 .0703125 .67871096 .0703125 .6936849 .07535807 .70613607 .08544922 .71606448 .09554037 .72599288 .1077474 .73095706 .12207031 .73095706 .13671875 .73095706 .14916992 .72599288 .15942383 .71606448 .16967774 .70613607 .17480469 .6936849 .17480469 .67871096 .17480469 .664388 .16967774 .65218099 .15942383 .64208987 .14916992 .6319987 .13671875 .6269531 .12207031 .6269531M.16113281 0H.08105469V.5H.16113281V0Z"/>
<path id="font_1_71" d="M.5078125 0H.42773438V.08496094H.42578126C.38867188 .020507813 .33138023-.01171875 .25390626-.01171875 .19108074-.01171875 .14086914 .010660808 .103271488 .055419923 .06567383 .10017904 .046875 .16113281 .046875 .23828125 .046875 .32096354 .067708339 .38720704 .109375 .43701173 .15104167 .4868164 .20654297 .51171877 .2758789 .51171877 .3445638 .51171877 .39453126 .48470054 .42578126 .43066407H.42773438V.7402344H.5078125V0M.42773438 .22607422V.2998047C.42773438 .34016929 .41438804 .37434898 .3876953 .40234376 .3610026 .43033854 .32714845 .44433595 .2861328 .44433595 .23730469 .44433595 .19889324 .42643229 .17089844 .390625 .14290364 .35481773 .12890625 .30533854 .12890625 .2421875 .12890625 .18457031 .14233399 .13907878 .16918946 .10571289 .19604492 .07234701 .23209636 .055664064 .27734376 .055664064 .3219401 .055664064 .3581543 .071777347 .38598634 .104003909 .41381837 .13623047 .42773438 .17692058 .42773438 .22607422Z"/>
<path id="font_1_72" d="M.48291017 .22998047H.12988281C.13118489 .1743164 .14615886 .13134766 .17480469 .10107422 .20345052 .07080078 .24283855 .055664064 .29296876 .055664064 .34928385 .055664064 .40104167 .07421875 .4482422 .111328128V.036132814C.40429688 .004231771 .3461914-.01171875 .27392579-.01171875 .20328777-.01171875 .14778646 .010986328 .107421878 .056396486 .06705729 .10180664 .046875 .16569011 .046875 .24804688 .046875 .32584635 .06892904 .38924156 .11303711 .43823243 .15714519 .4872233 .21191406 .51171877 .27734376 .51171877 .34277345 .51171877 .39339195 .4905599 .42919923 .4482422 .4650065 .40592448 .48291017 .34716798 .48291017 .27197267V.22998047M.4008789 .29785157C.40055339 .34407554 .3894043 .38004557 .36743165 .40576173 .34545899 .43147788 .3149414 .44433595 .2758789 .44433595 .23811849 .44433595 .20605469 .4308268 .1796875 .4038086 .15332031 .37679038 .13704427 .34147135 .13085938 .29785157H.4008789Z"/>
<path id="font_1_81" d="M.49609376 0H.41601563V.28515626C.41601563 .39127604 .37727867 .44433595 .2998047 .44433595 .25976563 .44433595 .22664388 .4292806 .20043946 .39916993 .17423503 .36905924 .16113281 .3310547 .16113281 .28515626V0H.08105469V.5H.16113281V.4169922H.16308594C.20084636 .48014323 .25553385 .51171877 .32714845 .51171877 .38183595 .51171877 .42366538 .49405924 .45263673 .45874024 .48160807 .42342124 .49609376 .37239585 .49609376 .30566407V0Z"/>
<path id="font_1_88" d="M.48535157 0H.40527345V.07910156H.4033203C.3701172 .018554688 .3186849-.01171875 .24902344-.01171875 .12988281-.01171875 .0703125 .059244794 .0703125 .20117188V.5H.14990235V.21386719C.14990235 .10839844 .19026692 .055664064 .2709961 .055664064 .3100586 .055664064 .34220378 .07006836 .36743165 .09887695 .39265953 .12768555 .40527345 .16536458 .40527345 .21191406V.5H.48535157V0Z"/>
<path id="font_1_87" d="M.31298829 .0048828127C.29410807-.005533854 .26920573-.0107421879 .23828125-.0107421879 .15071614-.0107421879 .106933597 .038085939 .106933597 .13574219V.43164063H.020996094V.5H.106933597V.6220703L.18701172 .6479492V.5H.31298829V.43164063H.18701172V.14990235C.18701172 .116373699 .19270833 .092447917 .20410156 .078125 .2154948 .063802089 .234375 .056640626 .2607422 .056640626 .28092448 .056640626 .29833985 .06217448 .31298829 .07324219V.0048828127Z"/>
<path id="font_1_68" d="M.43896485 0H.35888673V.078125H.3569336C.32210288 .018229166 .27083335-.01171875 .203125-.01171875 .15332031-.01171875 .114339198 .0014648438 .08618164 .027832032 .05802409 .05419922 .043945314 .08919271 .043945314 .1328125 .043945314 .22623699 .098958339 .28059898 .20898438 .29589845L.35888673 .31689454C.35888673 .40185548 .32454429 .44433595 .25585938 .44433595 .19563802 .44433595 .14127605 .42382813 .09277344 .3828125V.46484376C.14192708 .49609376 .1985677 .51171877 .2626953 .51171877 .38020835 .51171877 .43896485 .44954429 .43896485 .3251953V0M.35888673 .2529297 .23828125 .23632813C.20117188 .2311198 .17317708 .22192383 .15429688 .20874024 .13541667 .19555664 .12597656 .17220052 .12597656 .13867188 .12597656 .11425781 .13468425 .094319667 .15209961 .07885742 .16951497 .06339518 .19270833 .055664064 .22167969 .055664064 .26139323 .055664064 .29418946 .06958008 .32006837 .09741211 .34594728 .12524414 .35888673 .16048177 .35888673 .203125V.2529297Z"/>
<path id="font_1_73" d="M.328125 .6699219C.3125 .67871096 .29475913 .68310549 .27490235 .68310549 .21891277 .68310549 .19091797 .64778646 .19091797 .57714846V.5H.30810548V.43164063H.19091797V0H.111328128V.43164063H.025878907V.5H.111328128V.5810547C.111328128 .63346359 .12646485 .67488607 .15673828 .70532229 .18701172 .7357585 .22477214 .75097659 .27001954 .75097659 .2944336 .75097659 .3138021 .7480469 .328125 .7421875V.6699219Z"/>
<path id="font_1_70" d="M.421875 .022949219C.38346354-.00016276042 .33789063-.01171875 .28515626-.01171875 .21386719-.01171875 .15633138 .011474609 .11254883 .057861329 .06876627 .10424805 .046875 .16438802 .046875 .23828125 .046875 .32063804 .07047526 .38680015 .11767578 .43676759 .1648763 .48673503 .22786458 .51171877 .30664063 .51171877 .35058595 .51171877 .3893229 .50358077 .42285157 .4873047V.40527345C.3857422 .4313151 .34602867 .44433595 .30371095 .44433595 .25260417 .44433595 .21069336 .4260254 .17797852 .3894043 .14526367 .3527832 .12890625 .3046875 .12890625 .24511719 .12890625 .18652344 .14428711 .14029949 .17504883 .10644531 .20581055 .07259115 .24707031 .055664064 .29882813 .055664064 .3424479 .055664064 .38346354 .07014974 .421875 .099121097V.022949219Z"/>
<path id="font_1_86" d="M.05078125 .018066407V.104003909C.09440104 .071777347 .14241536 .055664064 .19482422 .055664064 .26513673 .055664064 .30029298 .07910156 .30029298 .12597656 .30029298 .13932292 .2972819 .15063477 .29125978 .15991211 .28523765 .16918946 .2770996 .17740886 .2668457 .18457031 .2565918 .19173177 .24454753 .19816081 .23071289 .20385742 .21687825 .20955403 .20198567 .2154948 .18603516 .22167969 .16389974 .23046875 .14444988 .23933919 .12768555 .24829102 .11092123 .25724284 .09692383 .26733399 .08569336 .27856446 .07446289 .28979493 .06599935 .30257163 .060302736 .31689454 .05460612 .33121745 .051757814 .34798179 .051757814 .3671875 .051757814 .390625 .057128908 .41137696 .067871097 .42944337 .07861328 .44750978 .092936199 .46264649 .110839847 .47485353 .12874349 .48706056 .14916992 .4962565 .17211914 .5024414 .19506836 .5086263 .21875 .51171877 .24316406 .51171877 .28645835 .51171877 .3251953 .50423178 .359375 .4892578V.40820313C.32259117 .43229167 .28027345 .44433595 .23242188 .44433595 .21744792 .44433595 .2039388 .44262696 .19189453 .43920899 .17985027 .43579103 .16951497 .4309896 .16088867 .4248047 .15226238 .41861979 .14558919 .4112142 .14086914 .4025879 .1361491 .39396159 .13378906 .3844401 .13378906 .37402345 .13378906 .3610026 .1361491 .35009767 .14086914 .3413086 .14558919 .33251954 .15250652 .32470704 .1616211 .3178711 .17073567 .31103517 .18180339 .30485026 .19482422 .2993164 .20784505 .29378257 .22265625 .2877604 .23925781 .28125 .26139323 .27278648 .28125 .26407878 .29882813 .25512696 .31640626 .24617513 .33138023 .23608399 .34375 .22485352 .35611979 .21362305 .36564128 .2006836 .37231446 .18603516 .37898765 .17138672 .38232423 .15397136 .38232423 .13378906 .38232423 .10904948 .37687174 .0875651 .3659668 .06933594 .35506187 .05110677 .34049479 .03597005 .32226563 .023925782 .30403648 .011881511 .28304038 .0029296876 .25927735-.0029296876 .23551433-.0087890629 .21061199-.01171875 .18457031-.01171875 .13313802-.01171875 .088541667-.0017903646 .05078125 .018066407Z"/>
<path id="font_1_85" d="M.34179688 .4189453C.32779948 .4296875 .3076172 .4350586 .28125 .4350586 .24707031 .4350586 .21850586 .4189453 .19555664 .38671876 .17260742 .3544922 .16113281 .31054688 .16113281 .2548828V0H.08105469V.5H.16113281V.39697267H.16308594C.17447917 .4321289 .19189453 .45955406 .21533203 .47924806 .23876953 .49894206 .26497398 .50878909 .2939453 .50878909 .31477867 .50878909 .33072917 .50651046 .34179688 .5019531V.4189453Z"/>
<path id="font_1_82" d="M.29003907-.01171875C.21614583-.01171875 .15714519 .01163737 .11303711 .05834961 .06892904 .10506185 .046875 .16699219 .046875 .24414063 .046875 .328125 .06982422 .39371745 .115722659 .44091798 .1616211 .4881185 .22363281 .51171877 .3017578 .51171877 .3763021 .51171877 .43448893 .48876954 .47631837 .4428711 .51814779 .39697267 .5390625 .33333335 .5390625 .25195313 .5390625 .17220052 .5165202 .108317058 .47143556 .060302736 .42635093 .012288411 .3658854-.01171875 .29003907-.01171875M.29589845 .44433595C.24446614 .44433595 .20377605 .4268392 .17382813 .3918457 .1438802 .3568522 .12890625 .30859376 .12890625 .24707031 .12890625 .18782552 .14404297 .14111328 .1743164 .106933597 .20458985 .072753909 .24511719 .055664064 .29589845 .055664064 .34765626 .055664064 .38745118 .07242838 .4152832 .10595703 .44311524 .13948567 .45703126 .18717449 .45703126 .24902344 .45703126 .31152345 .44311524 .35970054 .4152832 .3935547 .38745118 .42740885 .34765626 .44433595 .29589845 .44433595Z"/>
<path id="font_1_79" d="M.16113281 0H.08105469V.7402344H.16113281V0Z"/>
<path id="font_1_92" d="M.4790039 .5 .24902344-.080078128C.20800781-.18359375 .15039063-.23535156 .076171878-.23535156 .055338544-.23535156 .037923177-.23323567 .023925782-.2290039V-.15722656C.041178388-.16308594 .056966146-.16601563 .07128906-.16601563 .11165365-.16601563 .14192708-.14192708 .16210938-.09375L.20214844 .0009765625 .0068359377 .5H.095703128L.23095703 .115234378C.23258464 .11035156 .23600261 .09765625 .24121094 .07714844H.24414063C.24576824 .08496094 .24902344 .09733073 .25390626 .11425781L.3959961 .5H.4790039Z"/>
<path id="font_1_74" d="M.5078125 .040039064C.5078125-.14355469 .41992188-.23535156 .24414063-.23535156 .18229167-.23535156 .1282552-.22363281 .08203125-.20019531V-.12011719C.13834636-.15136719 .1920573-.16699219 .24316406-.16699219 .36621095-.16699219 .42773438-.1015625 .42773438 .029296875V.083984378H.42578126C.3876953 .020182291 .33040367-.01171875 .25390626-.01171875 .19173177-.01171875 .14168294 .010498047 .103759769 .05493164 .065836589 .099365238 .046875 .15901692 .046875 .23388672 .046875 .31884767 .06730143 .38639323 .1081543 .43652345 .14900716 .48665367 .20491536 .51171877 .2758789 .51171877 .34326173 .51171877 .39322917 .48470054 .42578126 .43066407H.42773438V.5H.5078125V.040039064M.42773438 .22607422V.2998047C.42773438 .33951823 .41430665 .37353517 .38745118 .40185548 .3605957 .43017579 .32714845 .44433595 .28710938 .44433595 .2376302 .44433595 .19889324 .42635093 .17089844 .39038087 .14290364 .3544108 .12890625 .30403648 .12890625 .23925781 .12890625 .18359375 .14233399 .13907878 .16918946 .10571289 .19604492 .07234701 .23160808 .055664064 .2758789 .055664064 .32080079 .055664064 .35734049 .071614589 .38549806 .103515628 .4136556 .13541667 .42773438 .17626953 .42773438 .22607422Z"/>
<path id="font_1_83" d="M.16308594 .072265628H.16113281V-.22998047H.08105469V.5H.16113281V.41210938H.16308594C.20247396 .47851563 .26009117 .51171877 .3359375 .51171877 .40039063 .51171877 .4506836 .4893392 .4868164 .44458009 .5229492 .39982096 .5410156 .33984376 .5410156 .26464845 .5410156 .18098958 .5206706 .11401367 .47998048 .0637207 .43929038 .013427734 .3836263-.01171875 .31298829-.01171875 .24820964-.01171875 .19824219 .016276041 .16308594 .072265628M.16113281 .27392579V.20410156C.16113281 .16276042 .17456055 .12768555 .20141602 .09887695 .22827149 .07006836 .26236979 .055664064 .30371095 .055664064 .35221354 .055664064 .3902181 .07421875 .4177246 .111328128 .4452311 .1484375 .45898438 .20003255 .45898438 .26611329 .45898438 .32177735 .4461263 .36539714 .42041017 .39697267 .394694 .4285482 .35986329 .44433595 .31591798 .44433595 .2693685 .44433595 .2319336 .42814128 .20361328 .39575196 .17529297 .36336265 .16113281 .3227539 .16113281 .27392579Z"/>
<path id="font_1_15" d="M.15429688 .111328128 .076171878-.12890625H.019042969L.076171878 .111328128H.15429688Z"/>
<path id="font_1_69" d="M.16308594 .072265628H.16113281V0H.08105469V.7402344H.16113281V.41210938H.16308594C.20247396 .47851563 .26009117 .51171877 .3359375 .51171877 .4000651 .51171877 .4502767 .4893392 .48657228 .44458009 .52286788 .39982096 .5410156 .33984376 .5410156 .26464845 .5410156 .18098958 .5206706 .11401367 .47998048 .0637207 .43929038 .013427734 .3836263-.01171875 .31298829-.01171875 .24690755-.01171875 .19694011 .016276041 .16308594 .072265628M.16113281 .27392579V.20410156C.16113281 .16276042 .17456055 .12768555 .20141602 .09887695 .22827149 .07006836 .26236979 .055664064 .30371095 .055664064 .35221354 .055664064 .3902181 .07421875 .4177246 .111328128 .4452311 .1484375 .45898438 .20003255 .45898438 .26611329 .45898438 .32177735 .4461263 .36539714 .42041017 .39697267 .394694 .4285482 .35986329 .44433595 .31591798 .44433595 .2693685 .44433595 .2319336 .42814128 .20361328 .39575196 .17529297 .36336265 .16113281 .3227539 .16113281 .27392579Z"/>
<path id="font_1_80" d="M.7910156 0H.7109375V.28710938C.7109375 .3424479 .7023926 .38248698 .68530276 .40722657 .6682129 .43196617 .63948568 .44433595 .5991211 .44433595 .5649414 .44433595 .5358887 .42871095 .5119629 .39746095 .4880371 .36621095 .47607423 .32877604 .47607423 .28515626V0H.3959961V.296875C.3959961 .39518229 .3580729 .44433595 .28222657 .44433595 .24707031 .44433595 .21809896 .4296061 .1953125 .40014649 .17252605 .37068687 .16113281 .33235679 .16113281 .28515626V0H.08105469V.5H.16113281V.42089845H.16308594C.1985677 .4814453 .25032554 .51171877 .31835938 .51171877 .35253907 .51171877 .38232423 .50219729 .40771485 .4831543 .43310548 .46411134 .45052085 .4391276 .45996095 .40820313 .4970703 .47721354 .5524089 .51171877 .62597659 .51171877 .7360026 .51171877 .7910156 .44384767 .7910156 .30810548V0Z"/>
<path id="font_1_90" d="M.7109375 .5 .56103518 0H.47802735L.375 .35791017C.37109376 .37158204 .3684896 .38704429 .3671875 .40429688H.36523438C.3642578 .39257813 .36083985 .3774414 .35498048 .35888673L.24316406 0H.16308594L.01171875 .5H.095703128L.19921875 .12402344C.20247396 .11263021 .20475261 .09765625 .20605469 .07910156H.20996094C.2109375 .09342448 .21386719 .10872396 .21875 .125L.33398438 .5H.40722657L.5107422 .123046878C.5139974 .1110026 .5164388 .09602865 .5180664 .078125H.52197268C.5226237 .09082031 .5253906 .10579427 .53027346 .123046878L.63183596 .5H.7109375Z"/>
<path id="font_1_29" d="M.10888672 .40234376C.09391276 .40234376 .08113607 .40771485 .07055664 .41845704 .059977216 .42919923 .0546875 .44205729 .0546875 .45703126 .0546875 .47200523 .059977216 .48470054 .07055664 .4951172 .08113607 .5055339 .09391276 .5107422 .10888672 .5107422 .124186199 .5107422 .13720703 .5055339 .14794922 .4951172 .1586914 .48470054 .1640625 .47200523 .1640625 .45703126 .1640625 .44205729 .1586914 .42919923 .14794922 .41845704 .13720703 .40771485 .124186199 .40234376 .10888672 .40234376M.10888672-.0107421879C.09391276-.0107421879 .08113607-.0053710939 .07055664 .0053710939 .059977216 .016113282 .0546875 .028971354 .0546875 .043945314 .0546875 .05891927 .059977216 .07185873 .07055664 .08276367 .08113607 .09366862 .09391276 .099121097 .10888672 .099121097 .124186199 .099121097 .13720703 .09366862 .14794922 .08276367 .1586914 .07185873 .1640625 .05891927 .1640625 .043945314 .1640625 .028971354 .1586914 .016113282 .14794922 .0053710939 .13720703-.0053710939 .124186199-.0107421879 .10888672-.0107421879Z"/>
<path id="font_2_2012" d="M.5136719 .55566409H.46875C.45735679 .5914714 .44132487 .6182454 .4206543 .6359863 .39998374 .65372726 .37516276 .66259768 .3461914 .66259768 .3243815 .66259768 .30704753 .6569824 .29418946 .64575198 .2813314 .6345215 .27490235 .6199544 .27490235 .6020508 .27490235 .59261068 .27701823 .5831706 .28125 .57373049 .28548179 .56429037 .29345704 .55167648 .30517579 .5358887 .31689454 .5201009 .33496095 .49788413 .359375 .46923829 .3889974 .4337565 .41048179 .4046224 .42382813 .38183595 .43717448 .35904948 .44685874 .3360189 .45288087 .31274415 .45890299 .2894694 .46191407 .26334635 .46191407 .234375 .46191407 .19401042 .45239259 .15462239 .4333496 .11621094 .41430665 .07779948 .38704429 .047526044 .3515625 .025390625 .31608073 .0032552083 .2750651-.0078125 .22851563-.0078125 .18717449-.0078125 .1529948-.0009765625 .12597656 .0126953129 .098958339 .026367188 .0793457 .044921876 .06713867 .068359378 .05493164 .091796878 .048828126 .1188151 .048828126 .14941406 .048828126 .21842449 .068115238 .27888999 .10668945 .33081056 .14526367 .3827311 .2023112 .42447917 .27783204 .4560547 .25211589 .48502604 .23331706 .5100911 .22143555 .53125 .20955403 .5524089 .20361328 .5724284 .20361328 .5913086 .20361328 .6118164 .20930989 .6303711 .22070313 .64697268 .23209636 .6635742 .24902344 .6767578 .27148438 .68652346 .2939453 .69628909 .32047526 .7011719 .35107423 .7011719 .37939454 .7011719 .40763346 .6962077 .43579103 .6862793 .46394859 .6763509 .49544273 .6588542 .53027346 .63378909L.5136719 .55566409M.30078126 .4248047C.25032554 .4033203 .21004232 .3671061 .17993164 .3161621 .14982097 .2652181 .13476563 .20800781 .13476563 .14453125 .13476563 .0686849 .16813152 .030761719 .23486328 .030761719 .26123048 .030761719 .28483073 .03955078 .30566407 .057128908 .3264974 .07470703 .34285484 .099365238 .35473634 .13110352 .36661784 .1628418 .3725586 .19645183 .3725586 .2319336 .3725586 .27034507 .3671875 .3046061 .3564453 .3347168 .34570313 .36482749 .32714845 .39485679 .30078126 .4248047Z"/>
<path id="font_2_1860" d="M.17041016 .55810549C.17822266 .5929362 .1821289 .6170247 .1821289 .6303711 .1821289 .64404299 .17797852 .6536458 .16967774 .6591797 .16137696 .66471359 .14648438 .66780599 .125 .66845706L.13085938 .69384768 .25439454 .6982422H.28271485L.19873047 .35986329 .20458985 .35791017C.23551433 .39892579 .26472984 .42862956 .29223634 .44702149 .31974284 .46541343 .3474935 .47460938 .37548829 .47460938 .40576173 .47460938 .42903648 .4659017 .4453125 .44848634 .46158854 .43107096 .46972657 .40690104 .46972657 .37597657 .46972657 .35546876 .4650065 .32633464 .4555664 .28857423L.42382813 .16064453C.41503907 .12516277 .41064454 .100097659 .41064454 .08544922 .41064454 .07242838 .4127604 .06298828 .4169922 .057128908 .42122398 .05126953 .42789714 .048339845 .43701173 .048339845 .44677735 .048339845 .457194 .052327474 .46826173 .060302736 .47932945 .06827799 .49495445 .083496097 .5151367 .10595703L.54296877 .07861328C.51171877 .045735677 .48608399 .023111979 .46606446 .0107421879 .44604493-.0016276041 .4235026-.0078125 .3984375-.0078125 .37727867-.0078125 .36043296-.00032552085 .3479004 .0146484379 .33536784 .029622397 .32910157 .048990888 .32910157 .072753909 .32910157 .09391276 .33447267 .125 .34521485 .16601563L.36621095 .25048829C.3736979 .28076173 .3787435 .3034668 .38134767 .31860353 .3839518 .33374024 .3852539 .34554038 .3852539 .3540039 .3852539 .37711589 .3815104 .3934733 .37402345 .40307618 .36653648 .41267906 .35432945 .41748048 .33740235 .41748048 .324056 .41748048 .30924479 .41194663 .29296876 .4008789 .27669273 .3898112 .25960288 .37296549 .24169922 .3503418 .22379558 .3277181 .20955403 .30607096 .19897461 .2854004 .18839519 .26472984 .18001302 .24007161 .17382813 .21142578L.12939453 0H.044921876L.17041016 .55810549Z"/>
<path id="font_2_3404" d="M.072753909 .3544922V.4194336H.6743164V.3544922H.072753909M.072753909 .15185547V.21679688H.6743164V.15185547H.072753909M.6948242 .28564454V.28564454Z"/>
<path id="font_2_1867" d="M.21289063-.008300781C.16243489-.008300781 .123291019 .005859375 .095458988 .034179689 .06762695 .0625 .053710939 .1031901 .053710939 .15625 .053710939 .18229167 .057617189 .21240235 .06542969 .24658203 .075520839 .292806 .092447917 .33317057 .11621094 .36767579 .13997396 .402181 .16927083 .42862956 .20410156 .44702149 .2389323 .46541343 .277181 .47460938 .31884767 .47460938 .370931 .47460938 .41064454 .46036784 .43798829 .43188478 .46533204 .4034017 .4790039 .36263023 .4790039 .3095703 .4790039 .2718099 .4724121 .23144531 .45922853 .18847656 .44604493 .14550781 .42797853 .109375 .4050293 .080078128 .38208009 .05078125 .35465495 .028727213 .3227539 .013916016 .29085288-.0008951823 .25423179-.008300781 .21289063-.008300781M.13916016 .1352539C.13916016 .09944662 .14656575 .07299805 .16137696 .055908204 .17618816 .03881836 .1985677 .030273438 .22851563 .030273438 .26041667 .030273438 .28873698 .044596357 .31347657 .07324219 .33821617 .10188802 .3577474 .14200847 .3720703 .19360352 .38639323 .24519857 .3935547 .29052735 .3935547 .32958985 .3935547 .3647461 .38671876 .39119468 .37304688 .40893556 .359375 .42667643 .33805339 .43554688 .30908204 .43554688 .27522788 .43554688 .24568685 .42138673 .22045899 .3930664 .19523113 .3647461 .17537435 .32421876 .16088867 .27148438 .146403 .21875 .13916016 .17333985 .13916016 .1352539Z"/>
<path id="font_2_4666" d="M.17236328 .24707031C.17236328 .13313802 .19067383 .03922526 .22729492-.03466797 .26391603-.108561199 .31982423-.15804036 .39501954-.18310547L.38330079-.22070313C.2879232-.19563802 .21484375-.14168294 .1640625-.05883789 .11328125 .024007163 .087890628 .12434896 .087890628 .2421875 .087890628 .35970054 .11336263 .46004234 .16430664 .5432129 .21525066 .6263835 .2882487 .6805013 .38330079 .7055664L.39648438 .66796877C.3203125 .6429036 .26391603 .59399417 .22729492 .52124026 .19067383 .44848634 .17236328 .35709635 .17236328 .24707031Z"/>
<path id="font_2_883" d="M.33935548 .1274414C.33935548 .108561199 .34041343 .094319667 .3425293 .0847168 .34464518 .07511393 .34838868 .06730143 .35375978 .061279298 .35913087 .05525716 .36686198 .05053711 .37695313 .04711914 .38704429 .043701173 .3997396 .041097005 .41503907 .03930664 .43033854 .037516279 .45052085 .036295576 .47558595 .03564453V0H.114746097V.03564453C.1508789 .037272138 .17667644 .039469404 .19213867 .042236329 .2076009 .045003255 .21940105 .049153646 .22753906 .0546875 .23567708 .060221357 .24161785 .06803385 .24536133 .078125 .24910482 .08821615 .25097657 .104654949 .25097657 .1274414V.5234375C.25097657 .5364583 .24869792 .5459798 .24414063 .55200198 .23958333 .5580241 .23291016 .56103518 .2241211 .56103518 .21370442 .56103518 .19889324 .55566409 .1796875 .5449219 .16048177 .5341797 .13671875 .51936849 .10839844 .5004883L.08691406 .53808596 .3154297 .6743164H.34228517C.34033204 .6430664 .33935548 .59977218 .33935548 .5444336V.1274414Z"/>
<path id="font_2_3398" d="M.072753909 .25341798V.31835938H.6743164V.25341798H.072753909Z"/>
<path id="font_2_4667" d="M.24267578 .24707031C.24267578 .35709635 .22444661 .44848634 .18798828 .52124026 .15152996 .59399417 .095052089 .6429036 .018554688 .66796877L.03173828 .7055664C.12679036 .6805013 .1997884 .6263835 .25073243 .5432129 .30167643 .46004234 .32714845 .35970054 .32714845 .2421875 .32714845 .12434896 .3017578 .024007163 .25097657-.05883789 .20019531-.14168294 .12711589-.19563802 .03173828-.22070313L.020019532-.18310547C.095214847-.15804036 .15112305-.108561199 .18774414-.03466797 .22436524 .03922526 .24267578 .13313802 .24267578 .24707031Z"/>
<path id="font_2_963" d="M.17138672 .6479492 .4091797 .28710938V.25L.14257813-.11621094H.4638672C.48404948-.11621094 .49926759-.11490885 .5095215-.11230469 .5197754-.10970052 .52856448-.10571289 .5358887-.1003418 .5432129-.0949707 .54988607-.08748373 .5559082-.07788086 .56193038-.06827799 .5677083-.05501302 .5732422-.038085939 .57877609-.021158854 .5839844 .0009765625 .5888672 .028320313H.6459961L.63183596-.20996094H.0126953129V-.18261719L.31445313 .2319336 .03125 .67089846V.69873049H.63427737V.4814453H.58154299C.57340499 .5123698 .5656738 .53759768 .5583496 .5571289 .5510254 .57666018 .5435384 .5921224 .5358887 .6035156 .52823898 .6149089 .52042648 .6236165 .5124512 .6296387 .5044759 .6356608 .49527995 .6402181 .48486329 .64331057 .47444663 .646403 .46061198 .6479492 .44335938 .6479492H.17138672Z"/>
<path id="font_2_1863" d="M.25732423 .2006836C.254069 .2133789 .2508138 .22216797 .2475586 .22705078 .24430339 .2319336 .24055989 .2351888 .23632813 .2368164 .23209636 .23844402 .22460938 .23925781 .21386719 .23925781H.18017578L.12939453 0H.044921876L.17041016 .55810549C.17464192 .57698568 .177653 .5917155 .17944336 .6022949 .18123372 .6128743 .1821289 .6222331 .1821289 .6303711 .1821289 .64404299 .17797852 .6536458 .16967774 .6591797 .16137696 .66471359 .14648438 .66780599 .125 .66845706L.13085938 .69384768 .25439454 .6982422H.28271485L.18701172 .27197267H.20263672C.22705078 .27197267 .25447593 .28263346 .2849121 .30395509 .3153483 .3252767 .339681 .3450521 .35791017 .36328126 .3761393 .3815104 .3852539 .39908854 .3852539 .41601563 .3852539 .43196617 .3741862 .44091798 .35205079 .4428711L.35742188 .46679688H.515625L.52490237 .4428711C.49788413 .41845704 .46923829 .39453126 .43896485 .37109376L.3178711 .27734376 .36572267 .10107422C.3696289 .08610026 .37312828 .075276698 .3762207 .068603519 .37931315 .06193034 .3828939 .056966146 .3869629 .053710939 .3910319 .05045573 .39648438 .048828126 .4033203 .048828126 .41178385 .048828126 .421875 .053385419 .43359376 .0625 .4453125 .071614589 .45865885 .08479818 .4736328 .10205078L.50146487 .07470703C.47216798 .04378255 .44791667 .022298178 .42871095 .010253906 .40950523-.0017903646 .39095054-.0078125 .37304688-.0078125 .35091148-.0078125 .33333335-.001546224 .3203125 .010986328 .30729167 .02351888 .29703776 .044433595 .28955079 .07373047L.25732423 .2006836Z"/>
<path id="font_2_1875" d="M.46777345 .08105469C.5185547 .15332031 .55721029 .21638997 .58374026 .27026368 .6102702 .32413737 .62353518 .3680013 .62353518 .40185548 .62353518 .41715495 .62027999 .42757163 .61376956 .43310548 .6072591 .4386393 .5961914 .44189454 .5805664 .4428711L.5854492 .46679688H.7114258L.7246094 .4423828C.7132161 .41341148 .70410159 .39111329 .6972656 .37548829 .6904297 .35986329 .68147787 .34106446 .67041018 .3190918 .65934249 .29711915 .6476237 .27522788 .6352539 .25341798 .6228841 .23160808 .6083171 .2076009 .59155276 .18139649 .5747884 .15519206 .55598959 .12670899 .53515627 .095947269 .51432296 .06518555 .4897461 .030598959 .46142579-.0078125H.4033203L.38330079 .19628906C.3816732 .21223958 .3799642 .23307292 .37817384 .25878907 .37638346 .28450523 .37516276 .30436198 .37451173 .31835938L.36914063 .31884767C.3515625 .27555339 .32763673 .2273763 .29736329 .1743164 .26708985 .12125651 .22965496 .060546876 .1850586-.0078125H.119628909L.08251953 .35986329C.080566409 .3787435 .078125 .39404298 .07519531 .40576173 .072265628 .41748048 .06738281 .42626954 .060546876 .4321289 .053710939 .43798829 .04248047 .441569 .026855469 .4428711L.032226564 .46679688H.16015625L.18945313 .08154297C.23535156 .15641277 .2684733 .2133789 .28881837 .2524414 .30916343 .2915039 .32421876 .3252767 .33398438 .35375978 .34375 .38224284 .35123698 .41194663 .3564453 .4428711L.3618164 .46679688H.4321289L.46777345 .08105469Z"/>
<path id="font_1_17" d="M.10888672-.0107421879C.09391276-.0107421879 .08113607-.0053710939 .07055664 .0053710939 .059977216 .016113282 .0546875 .028971354 .0546875 .043945314 .0546875 .05891927 .059977216 .07185873 .07055664 .08276367 .08113607 .09366862 .09391276 .099121097 .10888672 .099121097 .124186199 .099121097 .13720703 .09366862 .14794922 .08276367 .1586914 .07185873 .1640625 .05891927 .1640625 .043945314 .1640625 .028971354 .1586914 .016113282 .14794922 .0053710939 .13720703-.0053710939 .124186199-.0107421879 .10888672-.0107421879Z"/>
</defs>
<use data-text="A" xlink:href="#font_1_36" transform="matrix(21.91781,0,0,-21.91781,0,19.178002)" fill="#1c252b"/>
<use data-text="h" xlink:href="#font_1_75" transform="matrix(21.91781,0,0,-21.91781,20.120553,19.178002)" fill="#1c252b"/>
<use data-text="i" xlink:href="#font_1_76" transform="matrix(21.91781,0,0,-21.91781,32.54795,19.178002)" fill="#1c252b"/>
<use data-text="d" xlink:href="#font_1_71" transform="matrix(21.91781,0,0,-21.91781,37.852064,19.178002)" fill="#1c252b"/>
<use data-text="d" xlink:href="#font_1_71" transform="matrix(21.91781,0,0,-21.91781,50.761655,19.178002)" fill="#1c252b"/>
<use data-text="e" xlink:href="#font_1_72" transform="matrix(21.91781,0,0,-21.91781,63.671247,19.178002)" fill="#1c252b"/>
<use data-text="n" xlink:href="#font_1_81" transform="matrix(21.91781,0,0,-21.91781,75.13426,19.178002)" fill="#1c252b"/>
<use data-text="u" xlink:href="#font_1_88" transform="matrix(21.91781,0,0,-21.91781,93.5233,19.178002)" fill="#1c252b"/>
<use data-text="n" xlink:href="#font_1_81" transform="matrix(21.91781,0,0,-21.91781,105.92878,19.178002)" fill="#1c252b"/>
<use data-text="i" xlink:href="#font_1_76" transform="matrix(21.91781,0,0,-21.91781,118.33426,19.178002)" fill="#1c252b"/>
<use data-text="t" xlink:href="#font_1_87" transform="matrix(21.91781,0,0,-21.91781,123.63837,19.178002)" fill="#1c252b"/>
<use data-text="a" xlink:href="#font_1_68" transform="matrix(21.91781,0,0,-21.91781,137.07399,19.178002)" fill="#1c252b"/>
<use data-text="f" xlink:href="#font_1_73" transform="matrix(21.91781,0,0,-21.91781,148.23015,19.178002)" fill="#1c252b"/>
<use data-text="f" xlink:href="#font_1_73" transform="matrix(21.91781,0,0,-21.91781,155.09043,19.178002)" fill="#1c252b"/>
<use data-text="e" xlink:href="#font_1_72" transform="matrix(21.91781,0,0,-21.91781,161.9507,19.178002)" fill="#1c252b"/>
<use data-text="c" xlink:href="#font_1_70" transform="matrix(21.91781,0,0,-21.91781,173.41371,19.178002)" fill="#1c252b"/>
<use data-text="t" xlink:href="#font_1_87" transform="matrix(21.91781,0,0,-21.91781,183.53974,19.178002)" fill="#1c252b"/>
<use data-text="s" xlink:href="#font_1_86" transform="matrix(21.91781,0,0,-21.91781,190.96988,19.178002)" fill="#1c252b"/>
<use data-text="t" xlink:href="#font_1_87" transform="matrix(21.91781,0,0,-21.91781,206.26851,19.178002)" fill="#1c252b"/>
<use data-text="h" xlink:href="#font_1_75" transform="matrix(21.91781,0,0,-21.91781,213.69866,19.178002)" fill="#1c252b"/>
<use data-text="e" xlink:href="#font_1_72" transform="matrix(21.91781,0,0,-21.91781,226.10414,19.178002)" fill="#1c252b"/>
<use data-text="e" xlink:href="#font_1_72" transform="matrix(21.91781,0,0,-21.91781,243.57263,19.178002)" fill="#1c252b"/>
<use data-text="r" xlink:href="#font_1_85" transform="matrix(21.91781,0,0,-21.91781,255.03565,19.178002)" fill="#1c252b"/>
<use data-text="r" xlink:href="#font_1_85" transform="matrix(21.91781,0,0,-21.91781,262.66307,19.178002)" fill="#1c252b"/>
<use data-text="o" xlink:href="#font_1_82" transform="matrix(21.91781,0,0,-21.91781,270.29048,19.178002)" fill="#1c252b"/>
<use data-text="r" xlink:href="#font_1_85" transform="matrix(21.91781,0,0,-21.91781,283.1343,19.178002)" fill="#1c252b"/>
<use data-text="o" xlink:href="#font_1_82" transform="matrix(21.91781,0,0,-21.91781,296.7672,19.178002)" fill="#1c252b"/>
<use data-text="n" xlink:href="#font_1_81" transform="matrix(21.91781,0,0,-21.91781,309.61106,19.178002)" fill="#1c252b"/>
<use data-text="l" xlink:href="#font_1_79" transform="matrix(21.91781,0,0,-21.91781,322.01655,19.178002)" fill="#1c252b"/>
<use data-text="y" xlink:href="#font_1_92" transform="matrix(21.91781,0,0,-21.91781,327.32066,19.178002)" fill="#1c252b"/>
<use data-text="t" xlink:href="#font_1_87" transform="matrix(21.91781,0,0,-21.91781,343.93437,19.178002)" fill="#1c252b"/>
<use data-text="h" xlink:href="#font_1_75" transform="matrix(21.91781,0,0,-21.91781,351.3645,19.178002)" fill="#1c252b"/>
<use data-text="r" xlink:href="#font_1_85" transform="matrix(21.91781,0,0,-21.91781,363.77,19.178002)" fill="#1c252b"/>
<use data-text="o" xlink:href="#font_1_82" transform="matrix(21.91781,0,0,-21.91781,371.3974,19.178002)" fill="#1c252b"/>
<use data-text="u" xlink:href="#font_1_88" transform="matrix(21.91781,0,0,-21.91781,384.24125,19.178002)" fill="#1c252b"/>
<use data-text="g" xlink:href="#font_1_74" transform="matrix(21.91781,0,0,-21.91781,396.64674,19.178002)" fill="#1c252b"/>
<use data-text="h" xlink:href="#font_1_75" transform="matrix(21.91781,0,0,-21.91781,409.55635,19.178002)" fill="#1c252b"/>
<use data-text="t" xlink:href="#font_1_87" transform="matrix(21.91781,0,0,-21.91781,427.96733,19.178002)" fill="#1c252b"/>
<use data-text="h" xlink:href="#font_1_75" transform="matrix(21.91781,0,0,-21.91781,435.39747,19.178002)" fill="#1c252b"/>
<use data-text="e" xlink:href="#font_1_72" transform="matrix(21.91781,0,0,-21.91781,447.80296,19.178002)" fill="#1c252b"/>
<use data-text="o" xlink:href="#font_1_82" transform="matrix(21.91781,0,0,-21.91781,465.27146,19.178002)" fill="#1c252b"/>
<use data-text="u" xlink:href="#font_1_88" transform="matrix(21.91781,0,0,-21.91781,478.1153,19.178002)" fill="#1c252b"/>
<use data-text="t" xlink:href="#font_1_87" transform="matrix(21.91781,0,0,-21.91781,490.52079,19.178002)" fill="#1c252b"/>
<use data-text="p" xlink:href="#font_1_83" transform="matrix(21.91781,0,0,-21.91781,497.95094,19.178002)" fill="#1c252b"/>
<use data-text="u" xlink:href="#font_1_88" transform="matrix(21.91781,0,0,-21.91781,510.8386,19.178002)" fill="#1c252b"/>
<use data-text="t" xlink:href="#font_1_87" transform="matrix(21.91781,0,0,-21.91781,523.2441,19.178002)" fill="#1c252b"/>
<use data-text="u" xlink:href="#font_1_88" transform="matrix(21.91781,0,0,-21.91781,536.6797,19.178002)" fill="#1c252b"/>
<use data-text="n" xlink:href="#font_1_81" transform="matrix(21.91781,0,0,-21.91781,549.08517,19.178002)" fill="#1c252b"/>
<use data-text="i" xlink:href="#font_1_76" transform="matrix(21.91781,0,0,-21.91781,561.4906,19.178002)" fill="#1c252b"/>
<use data-text="t" xlink:href="#font_1_87" transform="matrix(21.91781,0,0,-21.91781,566.79476,19.178002)" fill="#1c252b"/>
<use data-text="s" xlink:href="#font_1_86" transform="matrix(21.91781,0,0,-21.91781,574.22488,19.178002)" fill="#1c252b"/>
<use data-text="i" xlink:href="#font_1_76" transform="matrix(21.91781,0,0,-21.91781,589.5235,19.178002)" fill="#1c252b"/>
<use data-text="t" xlink:href="#font_1_87" transform="matrix(21.91781,0,0,-21.91781,594.82766,19.178002)" fill="#1c252b"/>
<use data-text="f" xlink:href="#font_1_73" transform="matrix(21.91781,0,0,-21.91781,608.26327,19.178002)" fill="#1c252b"/>
<use data-text="e" xlink:href="#font_1_72" transform="matrix(21.91781,0,0,-21.91781,615.12356,19.178002)" fill="#1c252b"/>
<use data-text="e" xlink:href="#font_1_72" transform="matrix(21.91781,0,0,-21.91781,626.58657,19.178002)" fill="#1c252b"/>
<use data-text="d" xlink:href="#font_1_71" transform="matrix(21.91781,0,0,-21.91781,638.04959,19.178002)" fill="#1c252b"/>
<use data-text="s" xlink:href="#font_1_86" transform="matrix(21.91781,0,0,-21.91781,650.95919,19.178002)" fill="#1c252b"/>
<use data-text="," xlink:href="#font_1_15" transform="matrix(21.91781,0,0,-21.91781,660.2523,19.178002)" fill="#1c252b"/>
<use data-text="s" xlink:href="#font_1_86" transform="matrix(21.91781,0,0,-21.91781,671.014,19.178002)" fill="#1c252b"/>
<use data-text="o" xlink:href="#font_1_82" transform="matrix(21.91781,0,0,-21.91781,680.3071,19.178002)" fill="#1c252b"/>
<use data-text="b" xlink:href="#font_1_69" transform="matrix(21.91781,0,0,-21.91781,699.15646,19.178002)" fill="#1c252b"/>
<use data-text="y" xlink:href="#font_1_92" transform="matrix(21.91781,0,0,-21.91781,712.0441,19.178002)" fill="#1c252b"/>
<use data-text="t" xlink:href="#font_1_87" transform="matrix(21.91781,0,0,-21.91781,728.65786,19.178002)" fill="#1c252b"/>
<use data-text="h" xlink:href="#font_1_75" transform="matrix(21.91781,0,0,-21.91781,736.08798,19.178002)" fill="#1c252b"/>
<use data-text="e" xlink:href="#font_1_72" transform="matrix(21.91781,0,0,-21.91781,748.4934,19.178002)" fill="#1c252b"/>
<use data-text="c" xlink:href="#font_1_70" transform="matrix(21.91781,0,0,-21.91781,765.9619,19.178002)" fill="#1c252b"/>
<use data-text="h" xlink:href="#font_1_75" transform="matrix(21.91781,0,0,-21.91781,776.08798,19.178002)" fill="#1c252b"/>
<use data-text="a" xlink:href="#font_1_68" transform="matrix(21.91781,0,0,-21.91781,788.4934,19.178002)" fill="#1c252b"/>
<use data-text="i" xlink:href="#font_1_76" transform="matrix(21.91781,0,0,-21.91781,799.6496,19.178002)" fill="#1c252b"/>
<use data-text="n" xlink:href="#font_1_81" transform="matrix(21.91781,0,0,-21.91781,804.95376,19.178002)" fill="#1c252b"/>
<use data-text="r" xlink:href="#font_1_85" transform="matrix(21.91781,0,0,-21.91781,0,46.575)" fill="#1c252b"/>
<use data-text="u" xlink:href="#font_1_88" transform="matrix(21.91781,0,0,-21.91781,7.6273987,46.575)" fill="#1c252b"/>
<use data-text="l" xlink:href="#font_1_79" transform="matrix(21.91781,0,0,-21.91781,20.032879,46.575)" fill="#1c252b"/>
<use data-text="e" xlink:href="#font_1_72" transform="matrix(21.91781,0,0,-21.91781,25.33699,46.575)" fill="#1c252b"/>
<use data-text="i" xlink:href="#font_1_76" transform="matrix(21.91781,0,0,-21.91781,42.783567,46.575)" fill="#1c252b"/>
<use data-text="t" xlink:href="#font_1_87" transform="matrix(21.91781,0,0,-21.91781,48.087678,46.575)" fill="#1c252b"/>
<use data-text="s" xlink:href="#font_1_86" transform="matrix(21.91781,0,0,-21.91781,55.517816,46.575)" fill="#1c252b"/>
<use data-text="s" xlink:href="#font_1_86" transform="matrix(21.91781,0,0,-21.91781,70.816448,46.575)" fill="#1c252b"/>
<use data-text="h" xlink:href="#font_1_75" transform="matrix(21.91781,0,0,-21.91781,80.1096,46.575)" fill="#1c252b"/>
<use data-text="a" xlink:href="#font_1_68" transform="matrix(21.91781,0,0,-21.91781,92.515079,46.575)" fill="#1c252b"/>
<use data-text="r" xlink:href="#font_1_85" transform="matrix(21.91781,0,0,-21.91781,103.67124,46.575)" fill="#1c252b"/>
<use data-text="e" xlink:href="#font_1_72" transform="matrix(21.91781,0,0,-21.91781,111.29864,46.575)" fill="#1c252b"/>
<use data-text="o" xlink:href="#font_1_82" transform="matrix(21.91781,0,0,-21.91781,128.76714,46.575)" fill="#1c252b"/>
<use data-text="f" xlink:href="#font_1_73" transform="matrix(21.91781,0,0,-21.91781,141.61098,46.575)" fill="#1c252b"/>
<use data-text="t" xlink:href="#font_1_87" transform="matrix(21.91781,0,0,-21.91781,154.47673,46.575)" fill="#1c252b"/>
<use data-text="h" xlink:href="#font_1_75" transform="matrix(21.91781,0,0,-21.91781,161.90688,46.575)" fill="#1c252b"/>
<use data-text="e" xlink:href="#font_1_72" transform="matrix(21.91781,0,0,-21.91781,174.31237,46.575)" fill="#1c252b"/>
<use data-text="b" xlink:href="#font_1_69" transform="matrix(21.91781,0,0,-21.91781,191.78086,46.575)" fill="#1c252b"/>
<use data-text="l" xlink:href="#font_1_79" transform="matrix(21.91781,0,0,-21.91781,204.66852,46.575)" fill="#1c252b"/>
<use data-text="a" xlink:href="#font_1_68" transform="matrix(21.91781,0,0,-21.91781,209.97263,46.575)" fill="#1c252b"/>
<use data-text="m" xlink:href="#font_1_80" transform="matrix(21.91781,0,0,-21.91781,221.12879,46.575)" fill="#1c252b"/>
<use data-text="e" xlink:href="#font_1_72" transform="matrix(21.91781,0,0,-21.91781,240.00002,46.575)" fill="#1c252b"/>
<use data-text="i" xlink:href="#font_1_76" transform="matrix(21.91781,0,0,-21.91781,257.4685,46.575)" fill="#1c252b"/>
<use data-text="s" xlink:href="#font_1_86" transform="matrix(21.91781,0,0,-21.91781,262.7726,46.575)" fill="#1c252b"/>
<use data-text="t" xlink:href="#font_1_87" transform="matrix(21.91781,0,0,-21.91781,278.07127,46.575)" fill="#1c252b"/>
<use data-text="h" xlink:href="#font_1_75" transform="matrix(21.91781,0,0,-21.91781,285.5014,46.575)" fill="#1c252b"/>
<use data-text="e" xlink:href="#font_1_72" transform="matrix(21.91781,0,0,-21.91781,297.9069,46.575)" fill="#1c252b"/>
<use data-text="o" xlink:href="#font_1_82" transform="matrix(21.91781,0,0,-21.91781,315.3754,46.575)" fill="#1c252b"/>
<use data-text="u" xlink:href="#font_1_88" transform="matrix(21.91781,0,0,-21.91781,328.21925,46.575)" fill="#1c252b"/>
<use data-text="t" xlink:href="#font_1_87" transform="matrix(21.91781,0,0,-21.91781,340.62474,46.575)" fill="#1c252b"/>
<use data-text="p" xlink:href="#font_1_83" transform="matrix(21.91781,0,0,-21.91781,348.05488,46.575)" fill="#1c252b"/>
<use data-text="u" xlink:href="#font_1_88" transform="matrix(21.91781,0,0,-21.91781,360.94255,46.575)" fill="#1c252b"/>
<use data-text="t" xlink:href="#font_1_87" transform="matrix(21.91781,0,0,-21.91781,373.34803,46.575)" fill="#1c252b"/>
<use data-text="d" xlink:href="#font_1_71" transform="matrix(21.91781,0,0,-21.91781,386.78367,46.575)" fill="#1c252b"/>
<use data-text="e" xlink:href="#font_1_72" transform="matrix(21.91781,0,0,-21.91781,399.69325,46.575)" fill="#1c252b"/>
<use data-text="l" xlink:href="#font_1_79" transform="matrix(21.91781,0,0,-21.91781,411.15626,46.575)" fill="#1c252b"/>
<use data-text="t" xlink:href="#font_1_87" transform="matrix(21.91781,0,0,-21.91781,416.46037,46.575)" fill="#1c252b"/>
<use data-text="a" xlink:href="#font_1_68" transform="matrix(21.91781,0,0,-21.91781,423.8905,46.575)" fill="#1c252b"/>
<use data-text="s" xlink:href="#font_1_86" transform="matrix(21.91781,0,0,-21.91781,435.04667,46.575)" fill="#1c252b"/>
<use data-text="w" xlink:href="#font_1_90" transform="matrix(21.91781,0,0,-21.91781,450.3453,46.575)" fill="#1c252b"/>
<use data-text="e" xlink:href="#font_1_72" transform="matrix(21.91781,0,0,-21.91781,466.1919,46.575)" fill="#1c252b"/>
<use data-text="i" xlink:href="#font_1_76" transform="matrix(21.91781,0,0,-21.91781,477.6549,46.575)" fill="#1c252b"/>
<use data-text="g" xlink:href="#font_1_74" transform="matrix(21.91781,0,0,-21.91781,482.959,46.575)" fill="#1c252b"/>
<use data-text="h" xlink:href="#font_1_75" transform="matrix(21.91781,0,0,-21.91781,495.8686,46.575)" fill="#1c252b"/>
<use data-text="t" xlink:href="#font_1_87" transform="matrix(21.91781,0,0,-21.91781,508.27409,46.575)" fill="#1c252b"/>
<use data-text="e" xlink:href="#font_1_72" transform="matrix(21.91781,0,0,-21.91781,515.7042,46.575)" fill="#1c252b"/>
<use data-text="d" xlink:href="#font_1_71" transform="matrix(21.91781,0,0,-21.91781,527.16726,46.575)" fill="#1c252b"/>
<use data-text="b" xlink:href="#font_1_69" transform="matrix(21.91781,0,0,-21.91781,546.08236,46.575)" fill="#1c252b"/>
<use data-text="y" xlink:href="#font_1_92" transform="matrix(21.91781,0,0,-21.91781,558.97006,46.575)" fill="#1c252b"/>
<use data-text="i" xlink:href="#font_1_76" transform="matrix(21.91781,0,0,-21.91781,575.58377,46.575)" fill="#1c252b"/>
<use data-text="t" xlink:href="#font_1_87" transform="matrix(21.91781,0,0,-21.91781,580.8879,46.575)" fill="#1c252b"/>
<use data-text="s" xlink:href="#font_1_86" transform="matrix(21.91781,0,0,-21.91781,588.318,46.575)" fill="#1c252b"/>
<use data-text="c" xlink:href="#font_1_70" transform="matrix(21.91781,0,0,-21.91781,603.61666,46.575)" fill="#1c252b"/>
<use data-text="o" xlink:href="#font_1_82" transform="matrix(21.91781,0,0,-21.91781,613.7427,46.575)" fill="#1c252b"/>
<use data-text="n" xlink:href="#font_1_81" transform="matrix(21.91781,0,0,-21.91781,626.5865,46.575)" fill="#1c252b"/>
<use data-text="n" xlink:href="#font_1_81" transform="matrix(21.91781,0,0,-21.91781,638.99197,46.575)" fill="#1c252b"/>
<use data-text="e" xlink:href="#font_1_72" transform="matrix(21.91781,0,0,-21.91781,651.3974,46.575)" fill="#1c252b"/>
<use data-text="c" xlink:href="#font_1_70" transform="matrix(21.91781,0,0,-21.91781,662.8604,46.575)" fill="#1c252b"/>
<use data-text="t" xlink:href="#font_1_87" transform="matrix(21.91781,0,0,-21.91781,672.98648,46.575)" fill="#1c252b"/>
<use data-text="i" xlink:href="#font_1_76" transform="matrix(21.91781,0,0,-21.91781,680.41659,46.575)" fill="#1c252b"/>
<use data-text="o" xlink:href="#font_1_82" transform="matrix(21.91781,0,0,-21.91781,685.7207,46.575)" fill="#1c252b"/>
<use data-text="n" xlink:href="#font_1_81" transform="matrix(21.91781,0,0,-21.91781,698.5645,46.575)" fill="#1c252b"/>
<use data-text="s" xlink:href="#font_1_86" transform="matrix(21.91781,0,0,-21.91781,710.97,46.575)" fill="#1c252b"/>
<use data-text="t" xlink:href="#font_1_87" transform="matrix(21.91781,0,0,-21.91781,726.2686,46.575)" fill="#1c252b"/>
<use data-text="o" xlink:href="#font_1_82" transform="matrix(21.91781,0,0,-21.91781,733.6987,46.575)" fill="#1c252b"/>
<use data-text="t" xlink:href="#font_1_87" transform="matrix(21.91781,0,0,-21.91781,752.54806,46.575)" fill="#1c252b"/>
<use data-text="h" xlink:href="#font_1_75" transform="matrix(21.91781,0,0,-21.91781,759.97817,46.575)" fill="#1c252b"/>
<use data-text="e" xlink:href="#font_1_72" transform="matrix(21.91781,0,0,-21.91781,772.3836,46.575)" fill="#1c252b"/>
<use data-text="m" xlink:href="#font_1_80" transform="matrix(21.91781,0,0,-21.91781,783.8466,46.575)" fill="#1c252b"/>
<use data-text=":" xlink:href="#font_1_29" transform="matrix(21.91781,0,0,-21.91781,802.71786,46.575)" fill="#1c252b"/>
<use data-text="&#x1d6ff;" xlink:href="#font_2_2012" transform="matrix(21.91781,0,0,-21.91781,0,73.973)" fill="#1c252b"/>
<use data-text="&#x210e;" xlink:href="#font_2_1860" transform="matrix(15.3424,0,0,-15.3424,11.141,78.446)" fill="#1c252b"/>
<use data-text="=" xlink:href="#font_2_3404" transform="matrix(21.91781,0,0,-21.91781,26.649,73.973)" fill="#1c252b"/>
<use data-text="&#x1d45c;" xlink:href="#font_2_1867" transform="matrix(21.91781,0,0,-21.91781,49.092844,73.973)" fill="#1c252b"/>
<use data-text="&#x210e;" xlink:href="#font_2_1860" transform="matrix(15.3424,0,0,-15.3424,59.931,78.446)" fill="#1c252b"/>
<use data-text="(" xlink:href="#font_2_4666" transform="matrix(21.91781,0,0,-21.91781,69.351,73.973)" fill="#1c252b"/>
<use data-text="1" xlink:href="#font_2_883" transform="matrix(21.91781,0,0,-21.91781,78.44689,73.973)" fill="#1c252b"/>
<use data-text="&#x2212;" xlink:href="#font_2_3398" transform="matrix(21.91781,0,0,-21.91781,95.45511,73.973)" fill="#1c252b"/>
<use data-text="&#x1d45c;" xlink:href="#font_2_1867" transform="matrix(21.91781,0,0,-21.91781,116.69347,73.973)" fill="#1c252b"/>
<use data-text="&#x210e;" xlink:href="#font_2_1860" transform="matrix(15.3424,0,0,-15.3424,127.519,78.446)" fill="#1c252b"/>
<use data-text=")" xlink:href="#font_2_4667" transform="matrix(21.91781,0,0,-21.91781,136.939,73.973)" fill="#1c252b"/>
<use data-text="&#x2211;" xlink:href="#font_2_963" transform="matrix(21.91781,0,0,-21.91781,149.689,73.068)" fill="#1c252b"/>
<use data-text="&#x1d458;" xlink:href="#font_2_1863" transform="matrix(15.3424,0,0,-15.3424,165.217,81.095)" fill="#1c252b"/>
<use data-text="&#x1d464;" xlink:href="#font_2_1875" transform="matrix(21.91781,0,0,-21.91781,178.245,73.973)" fill="#1c252b"/>
<use data-text="&#x1d458;" xlink:href="#font_2_1863" transform="matrix(15.3424,0,0,-15.3424,193.046,78.446)" fill="#1c252b"/>
<use data-text="&#x210e;" xlink:href="#font_2_1860" transform="matrix(15.3424,0,0,-15.3424,201.95995,78.446)" fill="#1c252b"/>
<use data-text="&#x1d6ff;" xlink:href="#font_2_2012" transform="matrix(21.91781,0,0,-21.91781,211.381,73.973)" fill="#1c252b"/>
<use data-text="&#x1d458;" xlink:href="#font_2_1863" transform="matrix(15.3424,0,0,-15.3424,222.522,78.446)" fill="#1c252b"/>
<use data-text="." xlink:href="#font_1_17" transform="matrix(21.91781,0,0,-21.91781,231.897,73.973)" fill="#1c252b"/>
</svg>
