<svg xmlns="http://www.w3.org/2000/svg" xmlns:xlink="http://www.w3.org/1999/xlink" xmlns:inkscape="http://www.inkscape.org/namespaces/inkscape" version="1.1" width="800.136" height="76.638" viewBox="0 0 800.136 76.638">
<defs>
<path id="font_1_1838" d="M.033203126 .023925782C.045572919 .025878907 .05485026 .029052735 .061035158 .033447267 .067220058 .037841798 .07242838 .043945314 .076660159 .051757814 .08089193 .059570314 .08479818 .0690918 .088378909 .080322269 .09195963 .091552738 .09733073 .11328125 .10449219 .14550781L.1875 .5214844C.19466146 .55403646 .19824219 .5802409 .19824219 .60009768 .19824219 .61539718 .19441732 .6260579 .18676758 .6320801 .17911785 .63810226 .16699219 .64160159 .15039063 .6425781L.15576172 .6665039H.35107423L.34570313 .6425781C.33333335 .63997396 .3244629 .63704428 .3190918 .63378909 .3137207 .6305339 .30891929 .62565109 .3046875 .6191406 .30045573 .6126302 .2960612 .6024577 .2915039 .58862307 .28694663 .5747884 .28125 .5522461 .27441407 .5209961L.16992188 .044921876H.29003907C.31184898 .044921876 .32902018 .04703776 .34155274 .05126953 .3540853 .0555013 .3659668 .06323242 .37719728 .07446289 .38842774 .08569336 .39941407 .10091146 .41015626 .12011719 .42089845 .13932292 .43180339 .1632487 .4428711 .19189453H.49023438L.44091798 0H.027832032L.033203126 .023925782Z"/>
<path id="font_1_4666" d="M.17236328 .24707031C.17236328 .13313802 .19067383 .03922526 .22729492-.03466797 .26391603-.108561199 .31982423-.15804036 .39501954-.18310547L.38330079-.22070313C.2879232-.19563802 .21484375-.14168294 .1640625-.05883789 .11328125 .024007163 .087890628 .12434896 .087890628 .2421875 .087890628 .35970054 .11336263 .46004234 .16430664 .5432129 .21525066 .6263835 .2882487 .6805013 .38330079 .7055664L.39648438 .66796877C.3203125 .6429036 .26391603 .59399417 .22729492 .52124026 .19067383 .44848634 .17236328 .35709635 .17236328 .24707031Z"/>
<path id="font_2_90" d="M.7890625 .5 .64501956 0H.48291017L.4091797 .29296876C.40429688 .3125 .40152995 .33382163 .4008789 .3569336H.39794923C.39567057 .33154298 .39241538 .3108724 .3881836 .29492188L.30908204 0H.14892578L.0078125 .5H.16503906L.23388672 .17382813C.23714192 .15852864 .23958333 .13997396 .24121094 .11816406H.24414063C.24576824 .14095052 .24869792 .16015625 .2529297 .17578125L.3388672 .5H.48583985L.5629883 .17382813C.5649414 .16569011 .56722006 .14680989 .5698242 .1171875H.5732422C.5748698 .1360677 .57747396 .15494792 .5810547 .17382813L.6459961 .5H.7890625Z"/>
<path id="font_1_481" d="M.1508789 .11328125C.1554362 .09049479 .15771485 .06803385 .15771485 .045898439 .15771485 .023111979 .1538086 .0022786458 .1459961-.016601563 .1381836-.03548177 .12573242-.054280599 .10864258-.07299805 .091552738-.09171549 .06803385-.11230469 .038085939-.13476563L.01171875-.10498047C.028320313-.08935547 .040364583-.075276698 .047851564-.06274414 .055338544-.05021159 .060709638-.03597005 .063964847-.020019532 .067220058-.0040690104 .068847659 .015950522 .068847659 .040039064 .068847659 .06477865 .067708339 .08919271 .06542969 .11328125H.1508789Z"/>
<path id="font_1_1854" d="M.12109375 .023925782 .076171878-.0078125 .044921876 0 .17138672 .55810549C.1788737 .5913086 .18261719 .61539718 .18261719 .6303711 .18261719 .64404299 .1784668 .6536458 .17016602 .6591797 .16186524 .66471359 .14697266 .66780599 .12548828 .66845706L.13134766 .69384768 .2548828 .6982422H.28320313L.19726563 .3564453 .20361328 .3544922C.2351888 .3968099 .2648112 .42740885 .29248048 .44628907 .32014976 .46516929 .347819 .47460938 .37548829 .47460938 .41097007 .47460938 .43855796 .46110026 .45825196 .43408204 .47794596 .4070638 .48779298 .36897788 .48779298 .31982423 .48779298 .26611329 .4769694 .21329753 .45532228 .16137696 .43367515 .10945638 .40364585 .06827799 .36523438 .037841798 .3268229 .007405599 .28385417-.0078125 .23632813-.0078125 .19303386-.0078125 .15462239 .002766927 .12109375 .023925782M.1640625 .16992188C.15917969 .14713542 .15673828 .125 .15673828 .103515628 .15673828 .07779948 .16235352 .059244794 .17358399 .047851564 .18481446 .036458333 .20345052 .030761719 .22949219 .030761719 .24283855 .030761719 .25553385 .032958986 .26757813 .037353517 .2796224 .041748048 .2919108 .048990888 .30444337 .05908203 .31697593 .06917318 .32885743 .08243815 .3400879 .09887695 .35131837 .11531576 .36165367 .13557942 .37109376 .15966797 .38053385 .18375652 .38785807 .20955403 .3930664 .23706055 .39827476 .26456706 .4008789 .29085288 .4008789 .31591798 .4008789 .34977214 .39607749 .37516276 .3864746 .39208985 .37687174 .40901695 .36149089 .41748048 .34033204 .41748048 .32470704 .41748048 .30932618 .41251628 .29418946 .4025879 .27905274 .39265953 .26220704 .3762207 .24365235 .35327149 .22509766 .33032228 .20996094 .30680339 .19824219 .28271485 .18652344 .2586263 .17659505 .22786458 .16845703 .19042969L.1640625 .16992188Z"/>
<path id="font_1_4667" d="M.24267578 .24707031C.24267578 .35709635 .22444661 .44848634 .18798828 .52124026 .15152996 .59399417 .095052089 .6429036 .018554688 .66796877L.03173828 .7055664C.12679036 .6805013 .1997884 .6263835 .25073243 .5432129 .30167643 .46004234 .32714845 .35970054 .32714845 .2421875 .32714845 .12434896 .3017578 .024007163 .25097657-.05883789 .20019531-.14168294 .12711589-.19563802 .03173828-.22070313L.020019532-.18310547C.095214847-.15804036 .15112305-.108561199 .18774414-.03466797 .22436524 .03922526 .24267578 .13313802 .24267578 .24707031Z"/>
<path id="font_1_3404" d="M.072753909 .3544922V.4194336H.6743164V.3544922H.072753909M.072753909 .15185547V.21679688H.6743164V.15185547H.072753909M.6948242 .28564454V.28564454Z"/>
<path id="font_1_3398" d="M.072753909 .25341798V.31835938H.6743164V.25341798H.072753909Z"/>
<path id="font_1_883" d="M.33935548 .1274414C.33935548 .108561199 .34041343 .094319667 .3425293 .0847168 .34464518 .07511393 .34838868 .06730143 .35375978 .061279298 .35913087 .05525716 .36686198 .05053711 .37695313 .04711914 .38704429 .043701173 .3997396 .041097005 .41503907 .03930664 .43033854 .037516279 .45052085 .036295576 .47558595 .03564453V0H.114746097V.03564453C.1508789 .037272138 .17667644 .039469404 .19213867 .042236329 .2076009 .045003255 .21940105 .049153646 .22753906 .0546875 .23567708 .060221357 .24161785 .06803385 .24536133 .078125 .24910482 .08821615 .25097657 .104654949 .25097657 .1274414V.5234375C.25097657 .5364583 .24869792 .5459798 .24414063 .55200198 .23958333 .5580241 .23291016 .56103518 .2241211 .56103518 .21370442 .56103518 .19889324 .55566409 .1796875 .5449219 .16048177 .5341797 .13671875 .51936849 .10839844 .5004883L.08691406 .53808596 .3154297 .6743164H.34228517C.34033204 .6430664 .33935548 .59977218 .33935548 .5444336V.1274414Z"/>
<path id="font_1_1866" d="M.13330078 .3095703C.14046224 .3408203 .14404297 .36490885 .14404297 .38183595 .14404297 .39485679 .14192708 .40429688 .13769531 .41015626 .13346355 .41601563 .12679036 .4189453 .11767578 .4189453 .10758463 .4189453 .09692383 .41479493 .08569336 .40649415 .07446289 .39819337 .05908203 .38313804 .03955078 .36132813L.01171875 .38867188C.041666669 .41992188 .06656901 .44213868 .08642578 .45532228 .106282558 .46850587 .12874349 .47509767 .1538086 .47509767 .1743164 .47509767 .19051107 .4683431 .20239258 .45483399 .2142741 .44132487 .22021485 .42366538 .22021485 .40185548 .22021485 .38460288 .2163086 .36539714 .2084961 .34423829L.21435547 .34228517C.24625652 .38720704 .27661134 .42049156 .30541993 .44213868 .33422853 .4637858 .36393229 .47460938 .39453126 .47460938 .4248047 .47460938 .44807945 .4659017 .46435548 .44848634 .4806315 .43107096 .48876954 .40690104 .48876954 .37597657 .48876954 .35546876 .48404948 .32633464 .47460938 .28857423L.4428711 .16064453C.43408204 .12516277 .4296875 .100097659 .4296875 .08544922 .4296875 .07242838 .43180339 .06298828 .43603517 .057128908 .44026695 .05126953 .4469401 .048339845 .4560547 .048339845 .4658203 .048339845 .47623698 .052327474 .4873047 .060302736 .4983724 .06827799 .5139974 .083496097 .5341797 .10595703L.5620117 .07861328C.5340169 .048665365 .50960287 .026774088 .48876954 .012939453 .4679362-.0008951823 .4441732-.0078125 .41748048-.0078125 .39632163-.0078125 .37939454-.00024414063 .36669923 .014892578 .3540039 .030029297 .34765626 .049316408 .34765626 .072753909 .34765626 .09391276 .35302735 .125 .36376954 .16601563L.3852539 .25048829C.3930664 .28108726 .39819337 .30371095 .40063478 .31835938 .40307618 .3330078 .40429688 .3448893 .40429688 .3540039 .40429688 .37646485 .40055339 .39265953 .3930664 .4025879 .38557945 .41251628 .3733724 .41748048 .3564453 .41748048 .34277345 .41748048 .3280436 .41202799 .31225587 .40112306 .2964681 .3902181 .27970378 .3737793 .2619629 .35180665 .244222 .32983399 .22998047 .30851237 .21923828 .2878418 .2084961 .26717124 .19970703 .24169922 .1928711 .21142578L.14648438 0H.06201172L.13330078 .3095703Z"/>
<path id="font_1_3533" d="M.22802735 1.1762695 .8105469 .3852539V.32617188L.18164063-.52734377H1.0288086C1.0662435-.52734377 1.0948893-.51416018 1.1147461-.48779298 1.1346029-.46142579 1.1516928-.4025065 1.1660156-.31103517H1.2382813L1.2133789-.6689453H.0126953129V-.62060549L.69677737 .30664063 .032714845 1.1938477V1.2402344H1.2119141V.9511719H1.1474609C1.139974 1.0205078 1.1248373 1.075358 1.1020508 1.1157227 1.0792643 1.1560873 1.0447592 1.1762695 .99853518 1.1762695H.22802735Z"/>
<path id="font_1_1861" d="M.2758789 .6582031 .25341798 .56347659H.16699219L.18945313 .6582031H.2758789M.118652347 .32910157C.12613933 .36165367 .12988281 .38606773 .12988281 .40234376 .12988281 .4169922 .12638347 .42692057 .119384769 .4321289 .11238607 .43733726 .09863281 .44026695 .078125 .44091798L.083496097 .46679688 .20263672 .4711914H.23144531L.16113281 .15771485C.15397136 .1258138 .15039063 .10172526 .15039063 .08544922 .15039063 .07242838 .15250652 .06298828 .15673828 .057128908 .16097005 .05126953 .16764324 .048339845 .17675781 .048339845 .18652344 .048339845 .19694011 .052327474 .20800781 .060302736 .21907552 .06827799 .23470052 .083496097 .2548828 .10595703L.28271485 .07861328C.2508138 .045084638 .22493489 .022298178 .20507813 .010253906 .18522136-.0017903646 .16292317-.0078125 .1381836-.0078125 .11702474-.0078125 .100097659-.00008138021 .087402347 .015380859 .07470703 .0308431 .068359378 .05061849 .068359378 .07470703 .068359378 .09944662 .072916667 .13102214 .08203125 .1694336L.118652347 .32910157Z"/>
<path id="font_1_4674" d="M.34326173-.49169923V-.5341797H.110839847V1.1064453H.34326173V1.0639649H.20117188V-.49169923H.34326173Z"/>
<path id="font_1_1877" d="M.23876953-.0009765625C.22932942 .055989583 .21647136 .12467448 .20019531 .20507813 .1829427 .29101563 .17154949 .34423829 .16601563 .3647461 .15917969 .3894857 .15201824 .40527345 .14453125 .41210938 .13997396 .41634117 .13427735 .41845704 .1274414 .41845704 .11702474 .41845704 .10725912 .41422526 .09814453 .40576173 .089029949 .3972982 .07779948 .38264976 .064453128 .3618164L.032714845 .3828125C.05517578 .41634117 .076171878 .4400228 .095703128 .45385743 .115234378 .46769206 .13704427 .47460938 .16113281 .47460938 .17447917 .47460938 .18587239 .472819 .1953125 .46923829 .20182292 .46663413 .20833333 .46232096 .21484375 .45629884 .22135417 .4502767 .22713216 .44189454 .23217774 .43115235 .23722331 .42041017 .24161785 .40836589 .24536133 .39501954 .24910482 .3816732 .25325523 .36246745 .2578125 .33740235 .265625 .29541017 .27319337 .2512207 .28051759 .20483399 .2878418 .15844727 .29410807 .11539713 .2993164 .075683597 .33089195 .12125651 .35766603 .16585286 .37963868 .20947266 .40161134 .25309245 .41739909 .29101563 .42700196 .3232422 .43660484 .35546876 .44140626 .3816732 .44140626 .40185548 .44140626 .41715495 .43815104 .42757163 .43164063 .43310548 .42513023 .4386393 .4140625 .44189454 .3984375 .4428711L.4033203 .46679688H.5317383L.5449219 .4423828C.5201823 .37467448 .48665367 .3022461 .44433595 .22509766 .40266929 .14957683 .35498048 .07438151 .30126954-.00048828127 .24983724-.071777347 .20703125-.1233724 .17285156-.15527344 .14908855-.17708333 .12613933-.19270833 .104003909-.20214844 .08642578-.20930989 .067708339-.21289063 .047851564-.21289063 .041015626-.21289063 .033121747-.21232097 .024169922-.21118164 .015218099-.21004232 .008300781-.2084961 .0034179688-.20654297L.024414063-.111816409H.06298828C.06298828-.13264974 .07014974-.1430664 .084472659-.1430664 .10335287-.1430664 .12532552-.13126628 .15039063-.107666019 .17545574-.08406576 .20491536-.048502607 .23876953-.0009765625Z"/>
<path id="font_3_79" d="M.16113281 0H.08105469V.7402344H.16113281V0Z"/>
<path id="font_3_81" d="M.49609376 0H.41601563V.28515626C.41601563 .39127604 .37727867 .44433595 .2998047 .44433595 .25976563 .44433595 .22664388 .4292806 .20043946 .39916993 .17423503 .36905924 .16113281 .3310547 .16113281 .28515626V0H.08105469V.5H.16113281V.4169922H.16308594C.20084636 .48014323 .25553385 .51171877 .32714845 .51171877 .38183595 .51171877 .42366538 .49405924 .45263673 .45874024 .48160807 .42342124 .49609376 .37239585 .49609376 .30566407V0Z"/>
<path id="font_1_1868" d="M.13378906 .30810548C.140625 .33805339 .14404297 .36263023 .14404297 .38183595 .14404297 .39485679 .14192708 .40429688 .13769531 .41015626 .13346355 .41601563 .12679036 .4189453 .11767578 .4189453 .10758463 .4189453 .09692383 .41479493 .08569336 .40649415 .07446289 .39819337 .05908203 .38313804 .03955078 .36132813L.01171875 .38867188C.041015626 .41927085 .065836589 .44132487 .08618164 .45483399 .106526698 .4683431 .12906902 .47509767 .1538086 .47509767 .17399089 .47509767 .19002278 .46842448 .2019043 .45507813 .21378581 .44173179 .21972656 .42399089 .21972656 .40185548 .21972656 .3836263 .21598308 .36442057 .2084961 .34423829L.21435547 .34228517C.2745768 .4305013 .33447267 .47460938 .39404298 .47460938 .42952476 .47460938 .45711265 .46110026 .47680665 .43408204 .49650065 .4070638 .50634768 .36897788 .50634768 .31982423 .50634768 .26611329 .49552409 .21329753 .47387696 .16137696 .45222984 .10945638 .42220054 .06827799 .38378907 .037841798 .3453776 .007405599 .30240885-.0078125 .2548828-.0078125 .21158855-.0078125 .17561849 .0016276041 .14697266 .020507813L.12451172-.08642578C.119628909-.10953776 .1171875-.12858074 .1171875-.14355469 .1171875-.15787761 .12084961-.16805013 .12817383-.17407227 .13549805-.1800944 .14973958-.18408203 .17089844-.18603516L.16699219-.20996094H.016113282L.13378906 .30810548M.18310547 .16992188C.17985027 .15266927 .17781575 .13948567 .17700196 .1303711 .17618816 .12125651 .17578125 .11230469 .17578125 .103515628 .17578125 .078125 .18123372 .05965169 .19213867 .048095704 .20304363 .036539716 .22184246 .030761719 .24853516 .030761719 .26513673 .030761719 .2804362 .034016927 .2944336 .040527345 .308431 .04703776 .32169596 .056477865 .33422853 .068847659 .34676109 .081217449 .3580729 .096191409 .36816407 .11376953 .37825523 .13134766 .38728843 .1517741 .39526368 .17504883 .40323893 .19832357 .40926109 .22224935 .41333009 .24682617 .41739909 .27140299 .4194336 .2944336 .4194336 .31591798 .4194336 .35009767 .41463218 .37556968 .4050293 .39233399 .39542643 .4090983 .38020835 .41748048 .359375 .41748048 .34277345 .41748048 .32641603 .41186524 .31030274 .40063478 .29418946 .3894043 .27652995 .37141929 .25732423 .3466797 .23811849 .3219401 .22314453 .29752604 .21240235 .2734375 .20166016 .24934896 .19319661 .22167969 .18701172 .19042969L.18310547 .16992188Z"/>
<path id="font_1_3397" d="M.40820313 .25341798V-.027832032H.3388672V.25341798H.072753909V.31835938H.3388672V.5996094H.40820313V.31835938H.6743164V.25341798H.40820313Z"/>
<path id="font_1_4675" d="M.021972657-.5341797V-.49169923H.1640625V1.0639649H.021972657V1.1064453H.25439454V-.5341797H.021972657Z"/>
<path id="font_1_2026" d="M.5629883 .40234376H.4033203L.40234376 .3984375C.42089845 .3763021 .43424479 .3540039 .4423828 .33154298 .45052085 .30908204 .45458985 .28450523 .45458985 .2578125 .45458985 .20930989 .4441732 .16430664 .42333985 .122802738 .4025065 .08129883 .3733724 .049153646 .3359375 .026367188 .2985026 .0035807293 .2561849-.0078125 .20898438-.0078125 .15527344-.0078125 .114339198 .006591797 .08618164 .03540039 .05802409 .064208988 .043945314 .10498047 .043945314 .15771485 .043945314 .19384766 .049397787 .22810872 .060302736 .26049806 .07120768 .29288737 .08732096 .32267253 .10864258 .34985353 .12996419 .37703453 .15413411 .39908854 .18115235 .41601563 .20817058 .43294273 .24039714 .44563804 .27783204 .45410157 .31526695 .4625651 .363444 .46679688 .42236329 .46679688H.5776367L.5629883 .40234376M.34716798 .4008789C.3035482 .3995768 .2644857 .3869629 .22998047 .3630371 .19547527 .33911134 .16870117 .30696617 .1496582 .26660157 .13061524 .22623699 .12109375 .18147786 .12109375 .13232422 .12109375 .106933597 .12524414 .086507167 .13354492 .07104492 .1418457 .055582685 .15218099 .044921876 .16455078 .0390625 .17692058 .033203126 .19026692 .030273438 .20458985 .030273438 .23746746 .030273438 .26595054 .041015626 .29003907 .0625 .3141276 .083984378 .33357749 .11669922 .34838868 .16064453 .36319987 .20458985 .37060548 .24723308 .37060548 .28857423 .37060548 .33317057 .36279298 .37060548 .34716798 .4008789Z"/>
<path id="font_1_1668" d="M.14111328 .34521485C.15771485 .34521485 .17130535 .339681 .18188477 .32861329 .19246419 .31754557 .1977539 .30322267 .1977539 .28564454 .1977539 .2680664 .19246419 .2537435 .18188477 .24267578 .17130535 .23160808 .15771485 .22607422 .14111328 .22607422 .12451172 .22607422 .11092123 .23160808 .1003418 .24267578 .08976237 .2537435 .084472659 .2680664 .084472659 .28564454 .084472659 .30322267 .08976237 .31754557 .1003418 .32861329 .11092123 .339681 .12451172 .34521485 .14111328 .34521485Z"/>
<path id="font_2_91" d="M.54785159 .5 .3828125 .2578125 .546875 0H.36914063L.296875 .13476563C.29101563 .14550781 .28401695 .16064453 .2758789 .18017578H.27392579C.26904298 .1665039 .26236979 .15185547 .25390626 .13623047L.18115235 0H.00390625L.17285156 .24902344 .014160156 .5H.1928711L.26416017 .35986329C.27360026 .3413086 .28027345 .3256836 .2841797 .31298829H.2861328C.29134117 .32828776 .29833985 .34423829 .3071289 .36083985L.3798828 .5H.54785159Z"/>
</defs>
<use data-text="&#x1d43f;" xlink:href="#font_1_1838" transform="matrix(24.74719,0,0,-24.74719,28.424,44.964)" fill="#1c252b"/>
<use data-text="(" xlink:href="#font_1_4666" transform="matrix(24.74719,0,0,-24.74719,42.08445,44.964)" fill="#1c252b"/>
<use data-text="w" xlink:href="#font_2_90" transform="matrix(24.74719,0,0,-24.74719,52.361,44.964)" fill="#1c252b"/>
<use data-text="," xlink:href="#font_1_481" transform="matrix(24.74719,0,0,-24.74719,72.094,44.964)" fill="#1c252b"/>
<use data-text="&#x1d44f;" xlink:href="#font_1_1854" transform="matrix(24.74719,0,0,-24.74719,81.27521,44.964)" fill="#1c252b"/>
<use data-text=")" xlink:href="#font_1_4667" transform="matrix(24.74719,0,0,-24.74719,95.15839,44.964)" fill="#1c252b"/>
<use data-text="=" xlink:href="#font_1_3404" transform="matrix(24.74719,0,0,-24.74719,112.30819,44.964)" fill="#1c252b"/>
<use data-text="&#x2212;" xlink:href="#font_1_3398" transform="matrix(24.74719,0,0,-24.74719,137.67406,44.964)" fill="#1c252b"/>
<use data-text="1" xlink:href="#font_1_883" transform="matrix(24.74719,0,0,-24.74719,157.616,26.235)" fill="#1c252b"/>
<path transform="matrix(1,0,0,-1,157.368,38.699)" d="M0 0H14.198V1.607H0Z" fill="#1c252b"/>
<use data-text="&#x1d45b;" xlink:href="#font_1_1866" transform="matrix(24.74719,0,0,-24.74719,157.368,61.519)" fill="#1c252b"/>
<use data-text="&#x1d45b;" xlink:href="#font_1_1866" transform="matrix(17.32295,0,0,-17.32295,188.321,8.230003)" fill="#1c252b"/>
<use data-text="&#xfffd;" xlink:href="#font_1_3533" transform="matrix(24.74719,0,0,-24.74719,176.886,44.964)" fill="#1c252b"/>
<use data-text="&#x1d456;" xlink:href="#font_1_1861" transform="matrix(17.32295,0,0,-17.32295,179.004,76.503)" fill="#1c252b"/>
<use data-text="=" xlink:href="#font_1_3404" transform="matrix(17.32295,0,0,-17.32295,185.0324,76.503)" fill="#1c252b"/>
<use data-text="1" xlink:href="#font_1_883" transform="matrix(17.32295,0,0,-17.32295,197.97264,76.503)" fill="#1c252b"/>
<use data-text="&#xfffd;" xlink:href="#font_1_4674" transform="matrix(24.74719,0,0,-24.74719,213.818,44.977)" fill="#1c252b"/>
<use data-text="&#x1d466;" xlink:href="#font_1_1877" transform="matrix(24.74719,0,0,-24.74719,226.981,44.964)" fill="#1c252b"/>
<use data-text="&#x1d456;" xlink:href="#font_1_1861" transform="matrix(17.32295,0,0,-17.32295,238.654,50.015)" fill="#1c252b"/>
<use data-text="l" xlink:href="#font_3_79" transform="matrix(24.74719,0,0,-24.74719,249.295,44.964)" fill="#1c252b"/>
<use data-text="n" xlink:href="#font_3_81" transform="matrix(24.74719,0,0,-24.74719,255.28382,44.964)" fill="#1c252b"/>
<use data-text="&#x1d45d;" xlink:href="#font_1_1868" transform="matrix(24.74719,0,0,-24.74719,273.418,44.964)" fill="#1c252b"/>
<use data-text="&#x1d456;" xlink:href="#font_1_1861" transform="matrix(17.32295,0,0,-17.32295,286.25,50.015)" fill="#1c252b"/>
<use data-text="+" xlink:href="#font_1_3397" transform="matrix(24.74719,0,0,-24.74719,298.266,44.964)" fill="#1c252b"/>
<use data-text="(" xlink:href="#font_1_4666" transform="matrix(24.74719,0,0,-24.74719,322.246,44.964)" fill="#1c252b"/>
<use data-text="1" xlink:href="#font_1_883" transform="matrix(24.74719,0,0,-24.74719,332.51609,44.964)" fill="#1c252b"/>
<use data-text="&#x2212;" xlink:href="#font_1_3398" transform="matrix(24.74719,0,0,-24.74719,351.71989,44.964)" fill="#1c252b"/>
<use data-text="&#x1d466;" xlink:href="#font_1_1877" transform="matrix(24.74719,0,0,-24.74719,375.6999,44.964)" fill="#1c252b"/>
<use data-text="&#x1d456;" xlink:href="#font_1_1861" transform="matrix(17.32295,0,0,-17.32295,387.387,50.015)" fill="#1c252b"/>
<use data-text=")" xlink:href="#font_1_4667" transform="matrix(24.74719,0,0,-24.74719,393.903,44.964)" fill="#1c252b"/>
<use data-text="l" xlink:href="#font_3_79" transform="matrix(24.74719,0,0,-24.74719,408.299,44.964)" fill="#1c252b"/>
<use data-text="n" xlink:href="#font_3_81" transform="matrix(24.74719,0,0,-24.74719,414.28785,44.964)" fill="#1c252b"/>
<use data-text="(" xlink:href="#font_1_4666" transform="matrix(24.74719,0,0,-24.74719,428.297,44.964)" fill="#1c252b"/>
<use data-text="1" xlink:href="#font_1_883" transform="matrix(24.74719,0,0,-24.74719,438.56709,44.964)" fill="#1c252b"/>
<use data-text="&#x2212;" xlink:href="#font_1_3398" transform="matrix(24.74719,0,0,-24.74719,457.77088,44.964)" fill="#1c252b"/>
<use data-text="&#x1d45d;" xlink:href="#font_1_1868" transform="matrix(24.74719,0,0,-24.74719,481.7509,44.964)" fill="#1c252b"/>
<use data-text="&#x1d456;" xlink:href="#font_1_1861" transform="matrix(17.32295,0,0,-17.32295,494.591,50.015)" fill="#1c252b"/>
<use data-text=")" xlink:href="#font_1_4667" transform="matrix(24.74719,0,0,-24.74719,501.107,44.964)" fill="#1c252b"/>
<use data-text="&#xfffd;" xlink:href="#font_1_4675" transform="matrix(24.74719,0,0,-24.74719,515.503,44.977)" fill="#1c252b"/>
<use data-text="," xlink:href="#font_1_481" transform="matrix(24.74719,0,0,-24.74719,524.541,44.964)" fill="#1c252b"/>
<use data-text="&#x1d45d;" xlink:href="#font_1_1868" transform="matrix(24.74719,0,0,-24.74719,583.2166,44.964)" fill="#1c252b"/>
<use data-text="&#x1d456;" xlink:href="#font_1_1861" transform="matrix(17.32295,0,0,-17.32295,596.068,50.015)" fill="#1c252b"/>
<use data-text="=" xlink:href="#font_1_3404" transform="matrix(24.74719,0,0,-24.74719,609.459,44.964)" fill="#1c252b"/>
<use data-text="&#x1d70e;" xlink:href="#font_1_2026" transform="matrix(24.74719,0,0,-24.74719,634.8001,44.964)" fill="#1c252b"/>
<use data-text="(" xlink:href="#font_1_4666" transform="matrix(24.74719,0,0,-24.74719,649.8959,44.964)" fill="#1c252b"/>
<use data-text="w" xlink:href="#font_2_90" transform="matrix(24.74719,0,0,-24.74719,660.172,44.964)" fill="#1c252b"/>
<use data-text="&#x22c5;" xlink:href="#font_1_1668" transform="matrix(24.74719,0,0,-24.74719,685.404,44.964)" fill="#1c252b"/>
<use data-text="x" xlink:href="#font_2_91" transform="matrix(24.74719,0,0,-24.74719,697.888,44.964)" fill="#1c252b"/>
<use data-text="&#x1d456;" xlink:href="#font_1_1861" transform="matrix(17.32295,0,0,-17.32295,711.554,50.015)" fill="#1c252b"/>
<use data-text="+" xlink:href="#font_1_3397" transform="matrix(24.74719,0,0,-24.74719,723.57,44.964)" fill="#1c252b"/>
<use data-text="&#x1d44f;" xlink:href="#font_1_1854" transform="matrix(24.74719,0,0,-24.74719,747.55007,44.964)" fill="#1c252b"/>
<use data-text=")" xlink:href="#font_1_4667" transform="matrix(24.74719,0,0,-24.74719,761.4332,44.964)" fill="#1c252b"/>
</svg>
